<?xml version="1.0" encoding="UTF-8"?>
<!DOCTYPE svg PUBLIC "-//W3C//DTD SVG 1.1//EN" "http://www.w3.org/Graphics/SVG/1.1/DTD/svg11.dtd">
<svg xmlns="http://www.w3.org/2000/svg" version="1.1" width="738px" height="323px" style="shape-rendering:geometricPrecision; text-rendering:geometricPrecision; image-rendering:optimizeQuality; fill-rule:evenodd; clip-rule:evenodd" xmlns:xlink="http://www.w3.org/1999/xlink">
<g><path style="opacity:1" fill="#49923f" d="M 335.5,-0.5 C 344.5,-0.5 353.5,-0.5 362.5,-0.5C 369.087,1.4612 376.087,2.12787 383.5,1.5C 383.611,2.11742 383.944,2.61742 384.5,3C 393.114,4.29744 401.781,4.79744 410.5,4.5C 414.739,5.53457 419.072,6.20124 423.5,6.5C 423.611,7.11742 423.944,7.61742 424.5,8C 431.794,9.49352 439.127,10.6602 446.5,11.5C 446.183,15.7016 446.517,19.7016 447.5,23.5C 447.167,26.1667 446.833,28.8333 446.5,31.5C 445.313,33.0725 444.313,34.7392 443.5,36.5C 442.357,46.3407 441.357,56.3407 440.5,66.5C 437.71,66.7776 435.21,66.1109 433,64.5C 428.883,66.0075 425.049,65.5075 421.5,63C 414.174,62.5003 406.841,62.3337 399.5,62.5C 395.242,61.5978 390.909,60.5978 386.5,59.5C 368.005,58.3378 349.338,58.1712 330.5,59C 327.182,58.8246 325.182,60.3246 324.5,63.5C 323.596,64.209 323.263,65.209 323.5,66.5C 321.62,66.2291 320.287,66.8958 319.5,68.5C 317.903,69.0905 316.569,70.0905 315.5,71.5C 314.177,81.3254 314.177,90.992 315.5,100.5C 315.796,102.403 316.463,104.07 317.5,105.5C 317.394,108.079 318.061,110.412 319.5,112.5C 321.078,116.61 323.744,120.11 327.5,123C 332.06,124.321 336.727,125.154 341.5,125.5C 342.167,125.5 342.833,125.5 343.5,125.5C 344.918,127.308 346.918,127.975 349.5,127.5C 350.167,127.5 350.833,127.5 351.5,127.5C 357.392,131.64 364.058,133.307 371.5,132.5C 374.886,135.232 378.886,136.232 383.5,135.5C 387.836,137.349 391.836,139.849 395.5,143C 397.68,143.419 399.846,143.252 402,142.5C 404.333,143.167 406.667,143.833 409,144.5C 410.07,144.472 410.903,144.139 411.5,143.5C 412.959,143.433 414.292,143.766 415.5,144.5C 415.821,146.048 416.821,146.715 418.5,146.5C 418.973,147.906 419.973,148.573 421.5,148.5C 422.985,151.083 425.318,152.416 428.5,152.5C 430.05,153.441 431.716,154.107 433.5,154.5C 434.911,156.914 436.911,158.581 439.5,159.5C 441.325,164.682 443.659,169.682 446.5,174.5C 447.417,175.127 448.417,175.461 449.5,175.5C 450.167,175.833 450.833,176.167 451.5,176.5C 451.5,176.833 451.5,177.167 451.5,177.5C 451.833,180.167 452.167,182.833 452.5,185.5C 454.267,206.088 454.934,226.755 454.5,247.5C 454.167,247.5 453.833,247.5 453.5,247.5C 452.143,257.587 450.143,267.587 447.5,277.5C 447.5,278.5 447.5,279.5 447.5,280.5C 446.609,281.11 445.609,281.443 444.5,281.5C 446.391,279.164 446.891,276.498 446,273.5C 443.888,275.994 441.388,276.827 438.5,276C 437.667,276.833 436.833,277.667 436,278.5C 434.43,282.203 433.596,285.869 433.5,289.5C 431.132,291.223 428.466,291.89 425.5,291.5C 425.351,292.552 425.517,293.552 426,294.5C 427.622,295.099 429.122,295.766 430.5,296.5C 429.65,298.603 428.65,300.603 427.5,302.5C 422.296,304.05 417.296,306.05 412.5,308.5C 410.266,307.602 408.099,307.602 406,308.5C 404.333,307.833 402.667,307.167 401,306.5C 400.5,306.833 400,307.167 399.5,307.5C 400.518,308.852 401.851,309.852 403.5,310.5C 404.127,311.417 404.461,312.417 404.5,313.5C 392.51,314.356 380.51,314.523 368.5,314C 367.77,316.154 367.103,318.321 366.5,320.5C 350.816,320.696 335.149,320.363 319.5,319.5C 319.5,319.167 319.5,318.833 319.5,318.5C 317.304,317.188 314.97,316.021 312.5,315C 304.841,314.5 297.174,314.334 289.5,314.5C 286.833,314.5 284.167,314.5 281.5,314.5C 281.423,313.25 280.756,312.417 279.5,312C 276.522,311.304 273.522,310.804 270.5,310.5C 269.167,310.5 267.833,310.5 266.5,310.5C 266.5,309.833 266.167,309.5 265.5,309.5C 263.614,306.901 260.948,305.901 257.5,306.5C 256.391,306.443 255.391,306.11 254.5,305.5C 254.167,304.833 253.833,304.167 253.5,303.5C 261.436,304.653 269.102,306.653 276.5,309.5C 276.5,308.5 276.5,307.5 276.5,306.5C 270.194,303.961 263.528,302.294 256.5,301.5C 255.888,297.18 255.222,292.847 254.5,288.5C 251.639,287.838 250.973,286.338 252.5,284C 252,282.5 251.5,281 251,279.5C 248.679,281.82 247.179,284.486 246.5,287.5C 246.5,284.833 246.5,282.167 246.5,279.5C 246.5,279.167 246.5,278.833 246.5,278.5C 250.091,276.135 251.424,272.969 250.5,269C 251.698,263.219 252.531,257.386 253,251.5C 254.444,249.845 256.278,249.178 258.5,249.5C 259.167,249.5 259.833,249.5 260.5,249.5C 260.833,249.5 261.167,249.5 261.5,249.5C 262.028,250.721 262.695,251.887 263.5,253C 274.496,255.007 285.496,257.341 296.5,260C 304.079,261.683 311.745,262.516 319.5,262.5C 329.987,263.494 340.654,263.828 351.5,263.5C 351.539,264.756 351.039,265.756 350,266.5C 346,266.5 342,266.5 338,266.5C 337.25,265.874 336.416,265.374 335.5,265C 327.46,263.384 320.293,264.884 314,269.5C 311,269.5 308,269.5 305,269.5C 304.5,270 304,270.5 303.5,271C 308.122,271.494 312.456,271.994 316.5,272.5C 318.578,271.232 320.411,269.566 322,267.5C 326,267.5 330,267.5 334,267.5C 334.75,268.126 335.584,268.626 336.5,269C 339.167,269.167 341.833,269.333 344.5,269.5C 352.608,268.453 360.275,267.786 367.5,267.5C 367.213,272.495 368.88,273.495 372.5,270.5C 371.5,269.167 370.5,267.833 369.5,266.5C 373.645,263.688 378.312,262.354 383.5,262.5C 383.5,261.5 383.5,260.5 383.5,259.5C 381.167,259.5 378.833,259.5 376.5,259.5C 378.834,258.876 381.167,258.043 383.5,257C 382.643,256.311 381.977,255.478 381.5,254.5C 383.177,251.147 385.343,248.147 388,245.5C 388.655,232.819 388.488,220.152 387.5,207.5C 386.5,207.5 385.5,207.5 384.5,207.5C 384.167,207.5 383.833,207.5 383.5,207.5C 383.371,205.784 383.038,204.117 382.5,202.5C 379.82,195.85 374.82,192.85 367.5,193.5C 365.539,191.887 363.206,190.887 360.5,190.5C 359.395,188.287 359.395,186.12 360.5,184C 358.236,183.764 356.069,183.264 354,182.5C 352.978,183.354 352.145,184.354 351.5,185.5C 350.167,185.833 348.833,186.167 347.5,186.5C 343.524,185.836 339.524,185.503 335.5,185.5C 328.418,182.749 321.084,180.249 313.5,178C 310.183,177.502 306.85,177.335 303.5,177.5C 303.586,176.504 303.252,175.671 302.5,175C 299.774,174.818 297.107,174.318 294.5,173.5C 293.5,171.167 291.833,169.5 289.5,168.5C 287.742,169.446 286.075,169.446 284.5,168.5C 287.093,166.929 288.093,164.596 287.5,161.5C 284.427,162.199 281.427,163.199 278.5,164.5C 276.244,163.579 275.244,161.912 275.5,159.5C 272.833,159.5 270.167,159.5 267.5,159.5C 266.833,159.5 266.167,159.5 265.5,159.5C 262.982,156.118 260.815,152.451 259,148.5C 258.329,147.748 257.496,147.414 256.5,147.5C 256.167,146.167 255.833,144.833 255.5,143.5C 254.679,139.716 253.679,136.049 252.5,132.5C 255.046,137.85 256.38,137.35 256.5,131C 255.349,123.637 254.016,116.304 252.5,109C 252.648,98.2948 252.982,87.4615 253.5,76.5C 253.023,75.5224 252.357,74.6891 251.5,74C 252.436,69.6209 254.103,65.6209 256.5,62C 255.922,60.1886 255.422,58.3553 255,56.5C 253.984,57.6341 253.317,57.3008 253,55.5C 251.502,58.8014 251.335,62.1347 252.5,65.5C 249.866,74.9554 248.866,84.6221 249.5,94.5C 248.343,86.3437 248.177,78.0104 249,69.5C 250.215,64.9491 250.881,60.2824 251,55.5C 251.915,54.6721 252.581,53.6721 253,52.5C 253.333,52.8333 253.667,53.1667 254,53.5C 254.273,51.8988 254.773,50.3988 255.5,49C 253.845,47.5557 253.178,45.7224 253.5,43.5C 253.992,41.1815 254.992,39.1815 256.5,37.5C 258.677,34.9748 260.677,32.3081 262.5,29.5C 266.022,26.3186 269.022,22.6519 271.5,18.5C 272.551,17.7777 273.218,16.7777 273.5,15.5C 274.167,15.5 274.833,15.5 275.5,15.5C 278.664,15.4422 281.664,14.7755 284.5,13.5C 284.389,14.1174 284.056,14.6174 283.5,15C 285.995,15.1575 288.328,15.3241 290.5,15.5C 294.404,13.0007 298.737,11.834 303.5,12C 304.211,10.7453 305.044,9.57862 306,8.5C 308.313,8.99495 310.98,9.32828 314,9.5C 317.652,8.90224 320.985,8.23557 324,7.5C 327.667,8.16667 331.333,8.83333 335,9.5C 335.495,7.5273 335.662,5.5273 335.5,3.5C 334.167,3.5 332.833,3.5 331.5,3.5C 331.833,2.83333 332.167,2.16667 332.5,1.5C 334.179,1.71481 335.179,1.04814 335.5,-0.5 Z"/></g>
<g><path style="opacity:0.816" fill="#8ec08b" d="M 324.5,-0.5 C 328.167,-0.5 331.833,-0.5 335.5,-0.5C 335.179,1.04814 334.179,1.71481 332.5,1.5C 330.833,1.5 329.167,1.5 327.5,1.5C 326.5,1.5 325.5,1.5 324.5,1.5C 324.5,1.16667 324.5,0.833333 324.5,0.5C 324.5,0.166667 324.5,-0.166667 324.5,-0.5 Z"/></g>
<g><path style="opacity:1" fill="#6ca961" d="M 362.5,-0.5 C 366.167,-0.5 369.833,-0.5 373.5,-0.5C 376.833,0.166667 380.167,0.833333 383.5,1.5C 376.087,2.12787 369.087,1.4612 362.5,-0.5 Z"/></g>
<g><path style="opacity:0.186" fill="#abd3a5" d="M 373.5,-0.5 C 378.167,-0.5 382.833,-0.5 387.5,-0.5C 391.167,0.166667 394.833,0.833333 398.5,1.5C 396.167,1.5 393.833,1.5 391.5,1.5C 388.833,1.5 386.167,1.5 383.5,1.5C 380.167,0.833333 376.833,0.166667 373.5,-0.5 Z"/></g>
<g><path style="opacity:0.349" fill="#a8caa5" d="M 324.5,0.5 C 324.5,0.833333 324.5,1.16667 324.5,1.5C 319.924,1.43786 315.591,2.10452 311.5,3.5C 303.98,4.02121 296.646,5.35455 289.5,7.5C 300.612,3.01086 312.279,0.677523 324.5,0.5 Z"/></g>
<g><path style="opacity:0.916" fill="#60905a" d="M 324.5,1.5 C 325.5,1.5 326.5,1.5 327.5,1.5C 322.402,2.95731 317.069,3.62397 311.5,3.5C 315.591,2.10452 319.924,1.43786 324.5,1.5 Z"/></g>
<g><path style="opacity:0.643" fill="#8eb68a" d="M 391.5,1.5 C 393.833,1.5 396.167,1.5 398.5,1.5C 404.389,1.44969 410.056,2.11636 415.5,3.5C 413.833,3.5 412.167,3.5 410.5,3.5C 403.745,4.12295 397.412,3.45628 391.5,1.5 Z"/></g>
<g><path style="opacity:0.963" fill="#4f8c47" d="M 327.5,1.5 C 329.167,1.5 330.833,1.5 332.5,1.5C 332.167,2.16667 331.833,2.83333 331.5,3.5C 325.183,4.09416 318.849,4.59416 312.5,5C 304.542,6.82596 296.542,8.32596 288.5,9.5C 288.833,8.83333 289.167,8.16667 289.5,7.5C 296.646,5.35455 303.98,4.02121 311.5,3.5C 317.069,3.62397 322.402,2.95731 327.5,1.5 Z"/></g>
<g><path style="opacity:1" fill="#46943b" d="M 331.5,3.5 C 332.833,3.5 334.167,3.5 335.5,3.5C 335.662,5.5273 335.495,7.5273 335,9.5C 331.333,8.83333 327.667,8.16667 324,7.5C 320.985,8.23557 317.652,8.90224 314,9.5C 310.98,9.32828 308.313,8.99495 306,8.5C 305.044,9.57862 304.211,10.7453 303.5,12C 298.737,11.834 294.404,13.0007 290.5,15.5C 288.328,15.3241 285.995,15.1575 283.5,15C 284.056,14.6174 284.389,14.1174 284.5,13.5C 286.328,12.7172 287.661,11.3839 288.5,9.5C 296.542,8.32596 304.542,6.82596 312.5,5C 318.849,4.59416 325.183,4.09416 331.5,3.5 Z"/></g>
<g><path style="opacity:1" fill="#4f8948" d="M 383.5,1.5 C 386.167,1.5 388.833,1.5 391.5,1.5C 397.412,3.45628 403.745,4.12295 410.5,3.5C 410.5,3.83333 410.5,4.16667 410.5,4.5C 401.781,4.79744 393.114,4.29744 384.5,3C 383.944,2.61742 383.611,2.11742 383.5,1.5 Z"/></g>
<g><path style="opacity:0.165" fill="#afd8aa" d="M 505.5,4.5 C 553.332,3.33507 601.332,3.16841 649.5,4C 657.095,4.39228 664.428,5.55894 671.5,7.5C 663.486,6.86525 655.486,6.03191 647.5,5C 600.168,4.50001 552.835,4.33334 505.5,4.5 Z"/></g>
<g><path style="opacity:0.88" fill="#8bb785" d="M 410.5,4.5 C 410.5,4.16667 410.5,3.83333 410.5,3.5C 412.167,3.5 413.833,3.5 415.5,3.5C 421.804,3.43942 427.804,4.43942 433.5,6.5C 432.167,6.5 430.833,6.5 429.5,6.5C 427.5,6.5 425.5,6.5 423.5,6.5C 419.072,6.20124 414.739,5.53457 410.5,4.5 Z"/></g>
<g><path style="opacity:0.689" fill="#659a5e" d="M 505.5,4.5 C 552.835,4.33334 600.168,4.50001 647.5,5C 655.486,6.03191 663.486,6.86525 671.5,7.5C 671.5,7.83333 671.5,8.16667 671.5,8.5C 660.668,8.05182 650.001,7.38515 639.5,6.5C 595.336,5.50127 551.003,5.16794 506.5,5.5C 506.5,108.5 506.5,211.5 506.5,314.5C 506.5,314.833 506.5,315.167 506.5,315.5C 505.501,212.001 505.167,108.335 505.5,4.5 Z"/></g>
<g><path style="opacity:0.966" fill="#488740" d="M 1.5,5.5 C 66.1667,5.5 130.833,5.5 195.5,5.5C 195.5,25.5 195.5,45.5 195.5,65.5C 194.167,65.5 192.833,65.5 191.5,65.5C 154.167,65.5 116.833,65.5 79.5,65.5C 117.5,64.8333 155.5,64.1667 193.5,63.5C 194.497,44.674 194.83,25.674 194.5,6.5C 134.833,6.5 75.1667,6.5 15.5,6.5C 14.1667,6.5 12.8333,6.5 11.5,6.5C 8.83333,6.5 6.16667,6.5 3.5,6.5C 3.5,8.5 3.5,10.5 3.5,12.5C 2.83333,111.167 2.16667,209.833 1.5,308.5C 1.5,207.5 1.5,106.5 1.5,5.5 Z"/></g>
<g><path style="opacity:1" fill="#4c8f43" d="M 11.5,6.5 C 12.8333,6.5 14.1667,6.5 15.5,6.5C 15.3118,8.10326 15.8118,9.43659 17,10.5C 74.6667,10.1667 132.333,9.83333 190,9.5C 190.464,10.0944 190.631,10.7611 190.5,11.5C 131.971,11.1726 73.4706,11.5059 15,12.5C 11.4749,11.8825 10.9749,10.5492 13.5,8.5C 12.7573,7.81815 12.0906,7.15149 11.5,6.5 Z"/></g>
<g><path style="opacity:1" fill="#499140" d="M 15.5,6.5 C 75.1667,6.5 134.833,6.5 194.5,6.5C 194.83,25.674 194.497,44.674 193.5,63.5C 193.833,45.1546 193.5,26.8212 192.5,8.5C 191.824,9.60164 191.158,10.6016 190.5,11.5C 190.631,10.7611 190.464,10.0944 190,9.5C 132.333,9.83333 74.6667,10.1667 17,10.5C 15.8118,9.43659 15.3118,8.10326 15.5,6.5 Z"/></g>
<g><path style="opacity:0.102" fill="#c2e0bf" d="M 433.5,6.5 C 437.764,6.3442 441.764,7.01086 445.5,8.5C 441.236,8.6558 437.236,7.98914 433.5,6.5 Z"/></g>
<g><path style="opacity:1" fill="#499140" d="M 508.5,7.5 C 551.997,6.50129 595.663,6.16796 639.5,6.5C 650.001,7.38515 660.668,8.05182 671.5,8.5C 673.435,9.14952 675.435,9.48285 677.5,9.5C 679.522,11.6928 682.189,12.6928 685.5,12.5C 686.833,12.5 688.167,12.5 689.5,12.5C 690.965,13.7368 692.632,14.7368 694.5,15.5C 696.179,16.9997 697.512,18.833 698.5,21C 700.927,21.9023 703.26,22.7356 705.5,23.5C 709.185,26.6731 713.185,29.3398 717.5,31.5C 718.167,31.5 718.833,31.5 719.5,31.5C 720.338,31.8417 720.672,32.5084 720.5,33.5C 720.738,35.4044 721.738,36.7377 723.5,37.5C 723.5,38.1667 723.5,38.8333 723.5,39.5C 724.11,41.4341 725.11,43.1007 726.5,44.5C 726.5,45.8333 726.5,47.1667 726.5,48.5C 725.5,48.5 724.5,48.5 723.5,48.5C 722.669,53.1447 723.836,54.1447 727,51.5C 728.522,53.7409 729.855,56.0742 731,58.5C 732.585,65.6034 734.085,72.6034 735.5,79.5C 735.5,102.167 735.5,124.833 735.5,147.5C 735.265,152.241 734.598,156.908 733.5,161.5C 731.46,167.012 729.794,172.678 728.5,178.5C 724.565,181.111 722.231,184.777 721.5,189.5C 720.5,189.833 719.833,190.5 719.5,191.5C 718.167,191.5 716.833,191.5 715.5,191.5C 715.5,192.5 715.5,193.5 715.5,194.5C 714.5,194.5 713.5,194.5 712.5,194.5C 712.5,195.5 712.5,196.5 712.5,197.5C 707.96,198.875 704.96,201.875 703.5,206.5C 702.609,207.11 701.609,207.443 700.5,207.5C 697.562,207.977 694.896,208.977 692.5,210.5C 680.666,214.107 668.666,216.773 656.5,218.5C 629.153,218.747 602.153,219.747 575.5,221.5C 575.5,222.167 575.5,222.833 575.5,223.5C 574.502,253.662 574.169,283.995 574.5,314.5C 552.5,314.5 530.5,314.5 508.5,314.5C 508.5,314.167 508.5,313.833 508.5,313.5C 528.743,313.827 548.909,313.493 569,312.5C 569.667,311.167 569.667,309.833 569,308.5C 550.667,308.833 532.333,309.167 514,309.5C 512.812,308.437 512.312,307.103 512.5,305.5C 531.179,305.833 549.845,305.5 568.5,304.5C 549.602,303.827 530.769,303.161 512,302.5C 511.333,207.167 511.333,111.833 512,16.5C 554.096,15.6696 596.262,15.1696 638.5,15C 638,14.5 637.5,14 637,13.5C 596,13.8333 555,14.1667 514,14.5C 512.648,12.4062 512.148,10.0728 512.5,7.5C 511.167,7.5 509.833,7.5 508.5,7.5 Z M 644.5,68.5 C 644.833,68.5 645.167,68.5 645.5,68.5C 647.936,69.871 650.603,70.871 653.5,71.5C 653.842,72.3382 654.508,72.6716 655.5,72.5C 657.142,73.803 658.809,75.1363 660.5,76.5C 660.427,78.0269 661.094,79.0269 662.5,79.5C 663.129,82.3973 664.129,85.064 665.5,87.5C 665.5,88.1667 665.5,88.8333 665.5,89.5C 665.667,105.837 665.5,122.17 665,138.5C 664.261,141.546 663.428,144.546 662.5,147.5C 660.196,150.141 657.862,152.808 655.5,155.5C 650.407,157.719 645.074,159.053 639.5,159.5C 618.5,159.5 597.5,159.5 576.5,159.5C 576.5,129.5 576.5,99.5 576.5,69.5C 586.311,68.168 596.477,67.5013 607,67.5C 619.515,67.5767 632.015,67.91 644.5,68.5 Z"/></g>
<g><path style="opacity:0.999" fill="#4c8946" d="M 423.5,6.5 C 425.5,6.5 427.5,6.5 429.5,6.5C 434.451,8.77257 439.784,9.77257 445.5,9.5C 447.436,13.7147 448.103,18.3814 447.5,23.5C 446.517,19.7016 446.183,15.7016 446.5,11.5C 439.127,10.6602 431.794,9.49352 424.5,8C 423.944,7.61742 423.611,7.11742 423.5,6.5 Z"/></g>
<g><path style="opacity:0.808" fill="#72a06d" d="M 429.5,6.5 C 430.833,6.5 432.167,6.5 433.5,6.5C 437.236,7.98914 441.236,8.6558 445.5,8.5C 445.5,8.83333 445.5,9.16667 445.5,9.5C 439.784,9.77257 434.451,8.77257 429.5,6.5 Z"/></g>
<g><path style="opacity:1" fill="#48933c" d="M 508.5,7.5 C 509.833,7.5 511.167,7.5 512.5,7.5C 512.148,10.0728 512.648,12.4062 514,14.5C 555,14.1667 596,13.8333 637,13.5C 637.5,14 638,14.5 638.5,15C 596.262,15.1696 554.096,15.6696 512,16.5C 511.333,111.833 511.333,207.167 512,302.5C 530.769,303.161 549.602,303.827 568.5,304.5C 549.845,305.5 531.179,305.833 512.5,305.5C 512.312,307.103 512.812,308.437 514,309.5C 532.333,309.167 550.667,308.833 569,308.5C 569.667,309.833 569.667,311.167 569,312.5C 548.909,313.493 528.743,313.827 508.5,313.5C 508.49,211.292 508.49,109.292 508.5,7.5 Z"/></g>
<g><path style="opacity:0.114" fill="#9dc299" d="M 671.5,8.5 C 671.5,8.16667 671.5,7.83333 671.5,7.5C 675.837,7.58413 679.837,8.58413 683.5,10.5C 681.435,10.4828 679.435,10.1495 677.5,9.5C 675.435,9.48285 673.435,9.14952 671.5,8.5 Z"/></g>
<g><path style="opacity:0.506" fill="#98bb92" d="M 289.5,7.5 C 289.167,8.16667 288.833,8.83333 288.5,9.5C 286.565,10.1495 284.565,10.4828 282.5,10.5C 284.509,8.93482 286.843,7.93482 289.5,7.5 Z"/></g>
<g><path style="opacity:0.882" fill="#5f8e5a" d="M 677.5,9.5 C 679.435,10.1495 681.435,10.4828 683.5,10.5C 683.833,10.5 684.167,10.5 684.5,10.5C 684.833,11.1667 685.167,11.8333 685.5,12.5C 682.189,12.6928 679.522,11.6928 677.5,9.5 Z"/></g>
<g><path style="opacity:1" fill="#47933c" d="M 193.5,63.5 C 192.5,63.5 191.5,63.5 190.5,63.5C 190.5,47.5 190.5,31.5 190.5,15.5C 132.5,15.5 74.5,15.5 16.5,15.5C 16.5,111.5 16.5,207.5 16.5,303.5C 15.0413,303.567 13.7079,303.234 12.5,302.5C 12.5,207.167 12.5,111.833 12.5,16.5C 14.0913,15.7811 15.5913,14.7811 17,13.5C 74.6667,13.8333 132.333,14.1667 190,14.5C 190.483,13.552 190.649,12.552 190.5,11.5C 191.158,10.6016 191.824,9.60164 192.5,8.5C 193.5,26.8212 193.833,45.1546 193.5,63.5 Z"/></g>
<g><path style="opacity:0.125" fill="#afd3a9" d="M 282.5,10.5 C 281.713,12.1042 280.38,12.7709 278.5,12.5C 279.514,11.3263 280.847,10.6596 282.5,10.5 Z"/></g>
<g><path style="opacity:0.161" fill="#9ac097" d="M 684.5,10.5 C 686.403,10.7959 688.07,11.4625 689.5,12.5C 688.167,12.5 686.833,12.5 685.5,12.5C 685.167,11.8333 684.833,11.1667 684.5,10.5 Z"/></g>
<g><path style="opacity:1" fill="#488b3e" d="M 3.5,12.5 C 3.33334,109.834 3.5,207.167 4,304.5C 4.5,305.5 5,306.5 5.5,307.5C 2.18886,309.34 1.85552,311.34 4.5,313.5C 66.8333,313.5 129.167,313.5 191.5,313.5C 128.336,314.499 65.0022,314.832 1.5,314.5C 1.5,312.5 1.5,310.5 1.5,308.5C 2.16667,209.833 2.83333,111.167 3.5,12.5 Z"/></g>
<g><path style="opacity:0.098" fill="#9bc294" d="M 689.5,12.5 C 692.241,12.7073 694.574,13.7073 696.5,15.5C 695.833,15.5 695.167,15.5 694.5,15.5C 692.632,14.7368 690.965,13.7368 689.5,12.5 Z"/></g>
<g><path style="opacity:0.184" fill="#a7c4a3" d="M 278.5,12.5 C 277.9,13.8999 276.9,14.8999 275.5,15.5C 274.833,15.5 274.167,15.5 273.5,15.5C 274.659,13.7497 276.326,12.7497 278.5,12.5 Z"/></g>
<g><path style="opacity:1" fill="#548d4b" d="M 288.5,9.5 C 287.661,11.3839 286.328,12.7172 284.5,13.5C 281.664,14.7755 278.664,15.4422 275.5,15.5C 276.9,14.8999 277.9,13.8999 278.5,12.5C 280.38,12.7709 281.713,12.1042 282.5,10.5C 284.565,10.4828 286.565,10.1495 288.5,9.5 Z"/></g>
<g><path style="opacity:0.125" fill="#acc9a8" d="M 445.5,9.5 C 445.5,9.16667 445.5,8.83333 445.5,8.5C 447.912,8.24395 449.579,9.24395 450.5,11.5C 449.231,20.3016 447.898,28.9683 446.5,37.5C 446.5,35.5 446.5,33.5 446.5,31.5C 446.833,28.8333 447.167,26.1667 447.5,23.5C 448.103,18.3814 447.436,13.7147 445.5,9.5 Z"/></g>
<g><path style="opacity:1" fill="#4a9140" d="M 11.5,6.5 C 12.0906,7.15149 12.7573,7.81815 13.5,8.5C 10.9749,10.5492 11.4749,11.8825 15,12.5C 73.4706,11.5059 131.971,11.1726 190.5,11.5C 190.649,12.552 190.483,13.552 190,14.5C 132.333,14.1667 74.6667,13.8333 17,13.5C 15.5913,14.7811 14.0913,15.7811 12.5,16.5C 11.1529,15.8288 9.98619,15.8288 9,16.5C 8.33333,111.833 8.33333,207.167 9,302.5C 10.1455,303.684 11.3121,303.684 12.5,302.5C 13.7079,303.234 15.0413,303.567 16.5,303.5C 74.1571,305.496 132.157,306.163 190.5,305.5C 190.657,306.873 190.49,308.207 190,309.5C 132.333,309.167 74.6667,308.833 17,308.5C 16,309.5 15,310.5 14,311.5C 11.3201,308.438 8.15346,307.772 4.5,309.5C 4.5,310.833 4.5,312.167 4.5,313.5C 1.85552,311.34 2.18886,309.34 5.5,307.5C 5,306.5 4.5,305.5 4,304.5C 3.5,207.167 3.33334,109.834 3.5,12.5C 3.5,10.5 3.5,8.5 3.5,6.5C 6.16667,6.5 8.83333,6.5 11.5,6.5 Z"/></g>
<g><path style="opacity:1" fill="#47943b" d="M 4.5,14.5 C 5.4959,14.4142 6.32924,14.7476 7,15.5C 7.5,111.499 7.66666,207.499 7.5,303.5C 6.5,303.5 5.5,303.5 4.5,303.5C 4.5,207.167 4.5,110.833 4.5,14.5 Z"/></g>
<g><path style="opacity:1" fill="#4c9041" d="M 12.5,16.5 C 12.5,111.833 12.5,207.167 12.5,302.5C 11.3121,303.684 10.1455,303.684 9,302.5C 8.33333,207.167 8.33333,111.833 9,16.5C 9.98619,15.8288 11.1529,15.8288 12.5,16.5 Z"/></g>
<g><path style="opacity:1" fill="#48913f" d="M 193.5,63.5 C 155.5,64.1667 117.5,64.8333 79.5,65.5C 76.2234,65.2161 73.0567,65.5495 70,66.5C 69.8333,76.1667 69.6667,85.8333 69.5,95.5C 69.5015,105.524 70.1682,115.191 71.5,124.5C 72.5521,126.256 74.2188,126.923 76.5,126.5C 76.9175,127.222 77.5842,127.722 78.5,128C 110.498,128.5 142.498,128.667 174.5,128.5C 174.333,143.837 174.5,159.17 175,174.5C 175.414,174.957 175.914,175.291 176.5,175.5C 177.167,159.833 177.833,144.167 178.5,128.5C 179.5,127.167 180.5,127.167 181.5,128.5C 182.333,144.156 182.833,159.823 183,175.5C 183.167,167.333 183.333,159.167 183.5,151C 183.47,142.269 182.804,133.769 181.5,125.5C 182.791,125.263 183.791,125.596 184.5,126.5C 184.5,143.5 184.5,160.5 184.5,177.5C 149.127,178.087 114.627,178.087 81,177.5C 80.1667,178.333 79.3333,179.167 78.5,180C 75.4856,180.128 72.4856,180.128 69.5,180C 73.0652,181.758 76.7319,182.924 80.5,183.5C 76.5,183.5 72.5,183.5 68.5,183.5C 68.55,201.773 68.3834,220.107 68,238.5C 61.9518,240.228 62.1184,241.228 68.5,241.5C 68.1872,245.042 68.5206,248.375 69.5,251.5C 69.3284,252.492 69.6618,253.158 70.5,253.5C 71.1667,253.5 71.5,253.833 71.5,254.5C 112.5,255.167 153.5,255.833 194.5,256.5C 192.876,256.36 191.71,257.027 191,258.5C 190.5,273.496 190.333,288.496 190.5,303.5C 132.5,303.5 74.5,303.5 16.5,303.5C 16.5,207.5 16.5,111.5 16.5,15.5C 74.5,15.5 132.5,15.5 190.5,15.5C 190.5,31.5 190.5,47.5 190.5,63.5C 191.5,63.5 192.5,63.5 193.5,63.5 Z"/></g>
<g><path style="opacity:0.073" fill="#b7d9b2" d="M 505.5,4.5 C 505.167,108.335 505.501,212.001 506.5,315.5C 506.5,315.833 506.5,316.167 506.5,316.5C 505.167,264.838 504.5,212.838 504.5,160.5C 504.5,108.332 504.833,56.3323 505.5,4.5 Z"/></g>
<g><path style="opacity:1" fill="#45943b" d="M 639.5,8.5 C 648.874,8.26872 658.208,8.76872 667.5,10C 673.625,12.2237 679.959,13.557 686.5,14C 686.957,14.414 687.291,14.914 687.5,15.5C 681.416,17.2668 675.749,16.4335 670.5,13C 664.917,12.8089 659.417,12.3089 654,11.5C 649.667,11.8333 645.333,12.1667 641,12.5C 639.812,11.4366 639.312,10.1033 639.5,8.5 Z"/></g>
<g><path style="opacity:0.052" fill="#a7d6a0" d="M -0.5,3.5 C 65.3355,3.16752 131.002,3.50086 196.5,4.5C 131.5,4.5 66.5,4.5 1.5,4.5C 0.833333,107.833 0.166667,211.167 -0.5,314.5C -0.5,210.833 -0.5,107.167 -0.5,3.5 Z"/></g>
<g><path style="opacity:0.333" fill="#7aae72" d="M 1.5,4.5 C 1.5,4.83333 1.5,5.16667 1.5,5.5C 1.5,106.5 1.5,207.5 1.5,308.5C 1.5,310.5 1.5,312.5 1.5,314.5C 1.5,314.833 1.5,315.167 1.5,315.5C 0.833333,315.5 0.166667,315.5 -0.5,315.5C -0.5,315.167 -0.5,314.833 -0.5,314.5C 0.166667,211.167 0.833333,107.833 1.5,4.5 Z"/></g>
<g><path style="opacity:0.634" fill="#6f9e69" d="M 1.5,5.5 C 1.5,5.16667 1.5,4.83333 1.5,4.5C 66.5,4.5 131.5,4.5 196.5,4.5C 197.833,25.1667 197.833,45.8333 196.5,66.5C 194.833,66.5 193.167,66.5 191.5,66.5C 191.5,66.1667 191.5,65.8333 191.5,65.5C 192.833,65.5 194.167,65.5 195.5,65.5C 195.5,45.5 195.5,25.5 195.5,5.5C 130.833,5.5 66.1667,5.5 1.5,5.5 Z"/></g>
<g><path style="opacity:0.616" fill="#93c68a" d="M 273.5,15.5 C 273.218,16.7777 272.551,17.7777 271.5,18.5C 270.833,18.5 270.167,18.5 269.5,18.5C 270.262,16.7376 271.596,15.7376 273.5,15.5 Z"/></g>
<g><path style="opacity:0.912" fill="#4b8a42" d="M 639.5,6.5 C 595.663,6.16796 551.997,6.50129 508.5,7.5C 508.49,109.292 508.49,211.292 508.5,313.5C 508.5,313.833 508.5,314.167 508.5,314.5C 507.833,314.5 507.167,314.5 506.5,314.5C 506.5,211.5 506.5,108.5 506.5,5.5C 551.003,5.16794 595.336,5.50127 639.5,6.5 Z"/></g>
<g><path style="opacity:0.2" fill="#9ac196" d="M 697.5,15.5 C 703.957,17.9587 709.623,21.6253 714.5,26.5C 714.5,26.8333 714.5,27.1667 714.5,27.5C 709.596,23.702 704.262,20.3686 698.5,17.5C 697.702,17.0431 697.369,16.3764 697.5,15.5 Z"/></g>
<g><path style="opacity:0.937" fill="#518b49" d="M 694.5,15.5 C 695.167,15.5 695.833,15.5 696.5,15.5C 696.833,15.5 697.167,15.5 697.5,15.5C 697.369,16.3764 697.702,17.0431 698.5,17.5C 704.262,20.3686 709.596,23.702 714.5,27.5C 715.5,28.8333 716.5,30.1667 717.5,31.5C 713.185,29.3398 709.185,26.6731 705.5,23.5C 703.26,22.7356 700.927,21.9023 698.5,21C 697.512,18.833 696.179,16.9997 694.5,15.5 Z"/></g>
<g><path style="opacity:0.137" fill="#b6d4b1" d="M 269.5,18.5 C 264.779,22.9525 260.779,27.9525 257.5,33.5C 257.167,33.5 256.833,33.5 256.5,33.5C 259.21,27.0707 263.543,22.0707 269.5,18.5 Z"/></g>
<g><path style="opacity:1" fill="#44963a" d="M 705.5,23.5 C 704.833,25.5 704.167,27.5 703.5,29.5C 698.072,29.3209 695.072,26.6543 694.5,21.5C 698.002,22.9175 701.669,23.5842 705.5,23.5 Z"/></g>
<g><path style="opacity:0.161" fill="#bfdabc" d="M 714.5,26.5 C 716.5,27.8333 718.167,29.5 719.5,31.5C 718.833,31.5 718.167,31.5 717.5,31.5C 716.5,30.1667 715.5,28.8333 714.5,27.5C 714.5,27.1667 714.5,26.8333 714.5,26.5 Z"/></g>
<g><path style="opacity:0.937" fill="#558a4d" d="M 269.5,18.5 C 270.167,18.5 270.833,18.5 271.5,18.5C 269.022,22.6519 266.022,26.3186 262.5,29.5C 260.677,32.3081 258.677,34.9748 256.5,37.5C 256.833,36.1667 257.167,34.8333 257.5,33.5C 260.779,27.9525 264.779,22.9525 269.5,18.5 Z"/></g>
<g><path style="opacity:1" fill="#459539" d="M 262.5,29.5 C 264.312,29.2287 265.978,28.562 267.5,27.5C 267.953,25.4348 268.953,23.7682 270.5,22.5C 271.674,25.5251 271.007,28.1918 268.5,30.5C 268.766,34.2854 267.099,37.2854 263.5,39.5C 262.585,38.6721 261.919,37.6721 261.5,36.5C 262.374,34.2534 262.708,31.9201 262.5,29.5 Z"/></g>
<g><path style="opacity:0.302" fill="#a7cba2" d="M 720.5,33.5 C 722.262,34.2623 723.262,35.5956 723.5,37.5C 721.738,36.7377 720.738,35.4044 720.5,33.5 Z"/></g>
<g><path style="opacity:0.769" fill="#5f9357" d="M 446.5,31.5 C 446.5,33.5 446.5,35.5 446.5,37.5C 446.5,38.1667 446.5,38.8333 446.5,39.5C 445.288,42.7796 444.288,46.1129 443.5,49.5C 443.5,45.1667 443.5,40.8333 443.5,36.5C 444.313,34.7392 445.313,33.0725 446.5,31.5 Z"/></g>
<g><path style="opacity:0.118" fill="#b3d1ae" d="M 723.5,37.5 C 724.906,37.9731 725.573,38.9731 725.5,40.5C 724.833,40.1667 724.167,39.8333 723.5,39.5C 723.5,38.8333 723.5,38.1667 723.5,37.5 Z"/></g>
<g><path style="opacity:0.435" fill="#9cc596" d="M 256.5,33.5 C 256.833,33.5 257.167,33.5 257.5,33.5C 257.167,34.8333 256.833,36.1667 256.5,37.5C 254.992,39.1815 253.992,41.1815 253.5,43.5C 252.167,46.5 250.833,49.5 249.5,52.5C 250.47,45.5814 252.804,39.248 256.5,33.5 Z"/></g>
<g><path style="opacity:0.655" fill="#7cab75" d="M 723.5,39.5 C 724.167,39.8333 724.833,40.1667 725.5,40.5C 726.674,41.5137 727.34,42.847 727.5,44.5C 727.167,44.5 726.833,44.5 726.5,44.5C 725.11,43.1007 724.11,41.4341 723.5,39.5 Z"/></g>
<g><path style="opacity:0.161" fill="#a8caa4" d="M 446.5,39.5 C 445.779,47.6741 444.779,55.6741 443.5,63.5C 443.5,60.8333 443.5,58.1667 443.5,55.5C 443.5,53.5 443.5,51.5 443.5,49.5C 444.288,46.1129 445.288,42.7796 446.5,39.5 Z"/></g>
<g><path style="opacity:1" fill="#45943c" d="M 325.5,51.5 C 345.362,52.594 365.195,53.9274 385,55.5C 387.592,54.9587 390.258,55.292 393,56.5C 395.099,55.7135 397.266,55.3801 399.5,55.5C 399.5,56.5 399.5,57.5 399.5,58.5C 376.671,57.85 353.838,57.1833 331,56.5C 326.365,58.3764 324.532,56.7097 325.5,51.5 Z"/></g>
<g><path style="opacity:0.529" fill="#8ab484" d="M 443.5,55.5 C 443.5,58.1667 443.5,60.8333 443.5,63.5C 443.739,65.4672 443.406,67.3005 442.5,69C 437.957,69.372 433.623,68.872 429.5,67.5C 433.5,67.5 437.5,67.5 441.5,67.5C 441.851,63.3164 442.518,59.3164 443.5,55.5 Z"/></g>
<g><path style="opacity:0.902" fill="#77a471" d="M 341.5,60.5 C 356.324,59.5039 371.324,59.1706 386.5,59.5C 390.909,60.5978 395.242,61.5978 399.5,62.5C 399.5,62.8333 399.5,63.1667 399.5,63.5C 396.721,63.7214 394.054,63.388 391.5,62.5C 388.359,61.6787 385.025,61.1787 381.5,61C 368.838,60.5001 356.171,60.3334 343.5,60.5C 342.833,60.5 342.167,60.5 341.5,60.5 Z"/></g>
<g><path style="opacity:1" fill="#508d49" d="M 386.5,59.5 C 371.324,59.1706 356.324,59.5039 341.5,60.5C 338.171,60.2153 335.171,60.8819 332.5,62.5C 331.791,63.404 330.791,63.7373 329.5,63.5C 327.833,63.5 326.167,63.5 324.5,63.5C 325.182,60.3246 327.182,58.8246 330.5,59C 349.338,58.1712 368.005,58.3378 386.5,59.5 Z"/></g>
<g><path style="opacity:0.078" fill="#a6caa3" d="M 341.5,60.5 C 342.167,60.5 342.833,60.5 343.5,60.5C 343.5,60.8333 343.5,61.1667 343.5,61.5C 339.846,61.9422 336.179,62.2756 332.5,62.5C 335.171,60.8819 338.171,60.2153 341.5,60.5 Z"/></g>
<g><path style="opacity:0.11" fill="#c0e0bb" d="M 343.5,61.5 C 343.5,61.1667 343.5,60.8333 343.5,60.5C 356.171,60.3334 368.838,60.5001 381.5,61C 385.025,61.1787 388.359,61.6787 391.5,62.5C 375.513,61.6986 359.513,61.3652 343.5,61.5 Z"/></g>
<g><path style="opacity:1" fill="#5a9552" d="M 443.5,36.5 C 443.5,40.8333 443.5,45.1667 443.5,49.5C 443.5,51.5 443.5,53.5 443.5,55.5C 442.518,59.3164 441.851,63.3164 441.5,67.5C 437.5,67.5 433.5,67.5 429.5,67.5C 426.721,67.7214 424.054,67.388 421.5,66.5C 421.423,65.2502 420.756,64.4169 419.5,64C 413.175,63.5005 406.842,63.3338 400.5,63.5C 400.167,63.5 399.833,63.5 399.5,63.5C 399.5,63.1667 399.5,62.8333 399.5,62.5C 406.841,62.3337 414.174,62.5003 421.5,63C 425.049,65.5075 428.883,66.0075 433,64.5C 435.21,66.1109 437.71,66.7776 440.5,66.5C 441.357,56.3407 442.357,46.3407 443.5,36.5 Z"/></g>
<g><path style="opacity:0.192" fill="#9fc69a" d="M 729.5,48.5 C 732.14,53.085 733.806,58.085 734.5,63.5C 732.259,58.7779 730.593,53.7779 729.5,48.5 Z"/></g>
<g><path style="opacity:0.818" fill="#96ba91" d="M 400.5,63.5 C 406.842,63.3338 413.175,63.5005 419.5,64C 420.756,64.4169 421.423,65.2502 421.5,66.5C 414.308,65.8951 407.308,64.8951 400.5,63.5 Z"/></g>
<g><path style="opacity:0.722" fill="#7ca876" d="M 324.5,63.5 C 326.167,63.5 327.833,63.5 329.5,63.5C 325.544,65.7881 322.211,68.7881 319.5,72.5C 319.5,71.1667 319.5,69.8333 319.5,68.5C 320.287,66.8958 321.62,66.2291 323.5,66.5C 323.263,65.209 323.596,64.209 324.5,63.5 Z"/></g>
<g><path style="opacity:0.693" fill="#639b5e" d="M 79.5,65.5 C 116.833,65.5 154.167,65.5 191.5,65.5C 191.5,65.8333 191.5,66.1667 191.5,66.5C 151.499,66.3333 111.499,66.5 71.5,67C 70.1692,85.5978 70.1692,104.098 71.5,122.5C 71.5,123.167 71.5,123.833 71.5,124.5C 70.1682,115.191 69.5015,105.524 69.5,95.5C 69.6667,85.8333 69.8333,76.1667 70,66.5C 73.0567,65.5495 76.2234,65.2161 79.5,65.5 Z"/></g>
<g><path style="opacity:0.133" fill="#a5cda1" d="M 191.5,66.5 C 193.167,66.5 194.833,66.5 196.5,66.5C 155.335,67.3326 114.002,67.8326 72.5,68C 71.5076,86.0901 71.1743,104.257 71.5,122.5C 70.1692,104.098 70.1692,85.5978 71.5,67C 111.499,66.5 151.499,66.3333 191.5,66.5 Z"/></g>
<g><path style="opacity:0.114" fill="#a9cfa5" d="M 575.5,66.5 C 596.836,66.3334 618.169,66.5 639.5,67C 641.382,67.1981 643.048,67.6981 644.5,68.5C 632.015,67.91 619.515,67.5767 607,67.5C 596.477,67.5013 586.311,68.168 576.5,69.5C 576.167,69.5 575.833,69.5 575.5,69.5C 575.5,68.5 575.5,67.5 575.5,66.5 Z"/></g>
<g><path style="opacity:0.314" fill="#9bc397" d="M 645.5,68.5 C 648.716,68.3455 651.383,69.3455 653.5,71.5C 650.603,70.871 647.936,69.871 645.5,68.5 Z"/></g>
<g><path style="opacity:0.1" fill="#9dc498" d="M 248.5,57.5 C 248.299,63.509 247.966,69.509 247.5,75.5C 247.167,75.5 246.833,75.5 246.5,75.5C 246.388,69.2737 247.054,63.2737 248.5,57.5 Z"/></g>
<g><path style="opacity:0.506" fill="#7aaa74" d="M 655.5,72.5 C 658.546,72.1826 660.213,73.5159 660.5,76.5C 658.809,75.1363 657.142,73.803 655.5,72.5 Z"/></g>
<g><path style="opacity:0.708" fill="#579450" d="M 726.5,44.5 C 726.833,44.5 727.167,44.5 727.5,44.5C 728.674,45.5137 729.34,46.847 729.5,48.5C 730.593,53.7779 732.259,58.7779 734.5,63.5C 735.451,64.9187 735.784,66.5853 735.5,68.5C 735.5,72.1667 735.5,75.8333 735.5,79.5C 734.085,72.6034 732.585,65.6034 731,58.5C 729.855,56.0742 728.522,53.7409 727,51.5C 723.836,54.1447 722.669,53.1447 723.5,48.5C 724.5,48.5 725.5,48.5 726.5,48.5C 726.5,47.1667 726.5,45.8333 726.5,44.5 Z"/></g>
<g><path style="opacity:0.067" fill="#9fcb9b" d="M 660.5,76.5 C 661.906,76.9731 662.573,77.9731 662.5,79.5C 661.094,79.0269 660.427,78.0269 660.5,76.5 Z"/></g>
<g><path style="opacity:0.199" fill="#82ad7c" d="M 246.5,75.5 C 246.833,75.5 247.167,75.5 247.5,75.5C 247.619,91.1723 247.953,106.839 248.5,122.5C 247.681,119.695 247.181,116.695 247,113.5C 246.5,100.838 246.333,88.1711 246.5,75.5 Z"/></g>
<g><path style="opacity:0.099" fill="#a8cba7" d="M 575.5,69.5 C 575.833,69.5 576.167,69.5 576.5,69.5C 576.5,99.5 576.5,129.5 576.5,159.5C 597.5,159.5 618.5,159.5 639.5,159.5C 639.5,159.833 639.5,160.167 639.5,160.5C 618.167,160.5 596.833,160.5 575.5,160.5C 575.5,130.167 575.5,99.8333 575.5,69.5 Z"/></g>
<g><path style="opacity:0.176" fill="#98c194" d="M 662.5,79.5 C 664.655,81.6174 665.655,84.284 665.5,87.5C 664.129,85.064 663.129,82.3973 662.5,79.5 Z"/></g>
<g><path style="opacity:0.699" fill="#5e8f58" d="M 316.5,79.5 C 316.176,86.3543 316.509,93.021 317.5,99.5C 317.5,99.8333 317.5,100.167 317.5,100.5C 317.5,102.167 317.5,103.833 317.5,105.5C 316.463,104.07 315.796,102.403 315.5,100.5C 315.175,93.3134 315.509,86.3134 316.5,79.5 Z"/></g>
<g><path style="opacity:0.153" fill="#93bb8e" d="M 319.5,73.5 C 317.858,82.0664 317.192,90.733 317.5,99.5C 316.509,93.021 316.176,86.3543 316.5,79.5C 316.94,77.1561 317.94,75.1561 319.5,73.5 Z"/></g>
<g><path style="opacity:0.967" fill="#4c8a44" d="M 319.5,68.5 C 319.5,69.8333 319.5,71.1667 319.5,72.5C 319.5,72.8333 319.5,73.1667 319.5,73.5C 317.94,75.1561 316.94,77.1561 316.5,79.5C 315.509,86.3134 315.175,93.3134 315.5,100.5C 314.177,90.992 314.177,81.3254 315.5,71.5C 316.569,70.0905 317.903,69.0905 319.5,68.5 Z"/></g>
<g><path style="opacity:0.223" fill="#75ad70" d="M 735.5,68.5 C 736.167,72.8333 736.833,77.1667 737.5,81.5C 737.5,102.5 737.5,123.5 737.5,144.5C 736.596,145.209 736.263,146.209 736.5,147.5C 736.167,147.5 735.833,147.5 735.5,147.5C 735.5,124.833 735.5,102.167 735.5,79.5C 735.5,75.8333 735.5,72.1667 735.5,68.5 Z"/></g>
<g><path style="opacity:0.833" fill="#5b9355" d="M 575.5,66.5 C 598.996,65.3369 622.663,65.1702 646.5,66C 651.83,67.8327 656.83,70.3327 661.5,73.5C 662.498,76.1636 663.998,78.497 666,80.5C 666.413,83.2321 667.08,85.8987 668,88.5C 668.833,106.842 668.666,125.176 667.5,143.5C 665.846,149.134 662.512,153.134 657.5,155.5C 658.793,153.704 660.293,152.037 662,150.5C 662.483,149.552 662.649,148.552 662.5,147.5C 663.496,147.586 664.329,147.252 665,146.5C 666.744,127.363 666.911,108.363 665.5,89.5C 665.5,88.8333 665.5,88.1667 665.5,87.5C 665.655,84.284 664.655,81.6174 662.5,79.5C 662.573,77.9731 661.906,76.9731 660.5,76.5C 660.213,73.5159 658.546,72.1826 655.5,72.5C 654.508,72.6716 653.842,72.3382 653.5,71.5C 651.383,69.3455 648.716,68.3455 645.5,68.5C 645.167,68.5 644.833,68.5 644.5,68.5C 643.048,67.6981 641.382,67.1981 639.5,67C 618.169,66.5 596.836,66.3334 575.5,66.5 Z"/></g>
<g><path style="opacity:1" fill="#46953d" d="M 252.5,132.5 C 251.089,121.625 250.756,110.792 251.5,100C 250.891,98.0517 250.224,96.2184 249.5,94.5C 248.866,84.6221 249.866,74.9554 252.5,65.5C 251.335,62.1347 251.502,58.8014 253,55.5C 253.317,57.3008 253.984,57.6341 255,56.5C 255.422,58.3553 255.922,60.1886 256.5,62C 254.103,65.6209 252.436,69.6209 251.5,74C 252.357,74.6891 253.023,75.5224 253.5,76.5C 252.982,87.4615 252.648,98.2948 252.5,109C 254.016,116.304 255.349,123.637 256.5,131C 256.38,137.35 255.046,137.85 252.5,132.5 Z"/></g>
<g><path style="opacity:0.341" fill="#8eba89" d="M 317.5,100.5 C 318.311,104.431 319.311,108.431 320.5,112.5C 320.167,112.5 319.833,112.5 319.5,112.5C 318.061,110.412 317.394,108.079 317.5,105.5C 317.5,103.833 317.5,102.167 317.5,100.5 Z"/></g>
<g><path style="opacity:1" fill="#55924e" d="M 253.5,43.5 C 253.178,45.7224 253.845,47.5557 255.5,49C 254.773,50.3988 254.273,51.8988 254,53.5C 253.667,53.1667 253.333,52.8333 253,52.5C 252.581,53.6721 251.915,54.6721 251,55.5C 250.881,60.2824 250.215,64.9491 249,69.5C 248.177,78.0104 248.343,86.3437 249.5,94.5C 250.224,96.2184 250.891,98.0517 251.5,100C 250.756,110.792 251.089,121.625 252.5,132.5C 253.679,136.049 254.679,139.716 255.5,143.5C 254.833,142.833 254.167,142.167 253.5,141.5C 253.771,139.62 253.104,138.287 251.5,137.5C 249.865,132.656 248.865,127.656 248.5,122.5C 247.953,106.839 247.619,91.1723 247.5,75.5C 247.966,69.509 248.299,63.509 248.5,57.5C 248.216,55.5853 248.549,53.9187 249.5,52.5C 250.833,49.5 252.167,46.5 253.5,43.5 Z"/></g>
<g><path style="opacity:0.184" fill="#97bf91" d="M 320.5,112.5 C 322.5,113.833 324.167,115.5 325.5,117.5C 322.833,116.833 321.167,115.167 320.5,112.5 Z"/></g>
<g><path style="opacity:0.882" fill="#558e4e" d="M 319.5,112.5 C 319.833,112.5 320.167,112.5 320.5,112.5C 321.167,115.167 322.833,116.833 325.5,117.5C 326.492,117.328 327.158,117.662 327.5,118.5C 327.369,119.376 327.702,120.043 328.5,120.5C 333.011,121.999 337.344,123.665 341.5,125.5C 336.727,125.154 332.06,124.321 327.5,123C 323.744,120.11 321.078,116.61 319.5,112.5 Z"/></g>
<g><path style="opacity:0.173" fill="#9abe95" d="M 327.5,118.5 C 336.433,121.976 345.433,124.976 354.5,127.5C 353.5,127.5 352.5,127.5 351.5,127.5C 350.833,127.5 350.167,127.5 349.5,127.5C 347.698,126.542 345.698,125.875 343.5,125.5C 342.833,125.5 342.167,125.5 341.5,125.5C 337.344,123.665 333.011,121.999 328.5,120.5C 327.702,120.043 327.369,119.376 327.5,118.5 Z"/></g>
<g><path style="opacity:0.466" fill="#a9cda3" d="M 71.5,122.5 C 109.835,122.333 148.168,122.5 186.5,123C 187.248,141.602 187.915,160.269 188.5,179C 188.445,181.557 188.112,184.057 187.5,186.5C 148.839,187.5 110.172,187.833 71.5,187.5C 109.833,186.833 148.167,186.167 186.5,185.5C 186.5,165.167 186.5,144.833 186.5,124.5C 148.167,124.5 109.833,124.5 71.5,124.5C 71.5,123.833 71.5,123.167 71.5,122.5 Z"/></g>
<g><path style="opacity:1" fill="#47923d" d="M 181.5,125.5 C 182.804,133.769 183.47,142.269 183.5,151C 183.333,159.167 183.167,167.333 183,175.5C 182.833,159.823 182.333,144.156 181.5,128.5C 180.5,127.167 179.5,127.167 178.5,128.5C 177.833,144.167 177.167,159.833 176.5,175.5C 175.914,175.291 175.414,174.957 175,174.5C 174.5,159.17 174.333,143.837 174.5,128.5C 142.498,128.667 110.498,128.5 78.5,128C 77.5842,127.722 76.9175,127.222 76.5,126.5C 111.329,125.502 146.329,125.168 181.5,125.5 Z"/></g>
<g><path style="opacity:0.725" fill="#56884e" d="M 343.5,125.5 C 345.698,125.875 347.698,126.542 349.5,127.5C 346.918,127.975 344.918,127.308 343.5,125.5 Z"/></g>
<g><path style="opacity:0.353" fill="#8db988" d="M 355.5,127.5 C 358.067,127.721 360.401,128.388 362.5,129.5C 360.473,129.662 358.473,129.495 356.5,129C 355.944,128.617 355.611,128.117 355.5,127.5 Z"/></g>
<g><path style="opacity:0.935" fill="#568e4e" d="M 351.5,127.5 C 352.5,127.5 353.5,127.5 354.5,127.5C 354.833,127.5 355.167,127.5 355.5,127.5C 355.611,128.117 355.944,128.617 356.5,129C 358.473,129.495 360.473,129.662 362.5,129.5C 365.123,131.265 368.123,131.932 371.5,131.5C 371.5,131.833 371.5,132.167 371.5,132.5C 364.058,133.307 357.392,131.64 351.5,127.5 Z"/></g>
<g><path style="opacity:0.106" fill="#98bc93" d="M 362.5,129.5 C 365.727,129.676 368.727,130.343 371.5,131.5C 368.123,131.932 365.123,131.265 362.5,129.5 Z"/></g>
<g><path style="opacity:0.196" fill="#91b38d" d="M 375.5,132.5 C 378.067,132.721 380.401,133.388 382.5,134.5C 379.772,134.829 377.438,134.163 375.5,132.5 Z"/></g>
<g><path style="opacity:0.788" fill="#6e9e67" d="M 371.5,131.5 C 373.099,131.232 374.432,131.566 375.5,132.5C 377.438,134.163 379.772,134.829 382.5,134.5C 384.099,134.232 385.432,134.566 386.5,135.5C 385.5,135.5 384.5,135.5 383.5,135.5C 378.886,136.232 374.886,135.232 371.5,132.5C 371.5,132.167 371.5,131.833 371.5,131.5 Z"/></g>
<g><path style="opacity:0.212" fill="#92bd8b" d="M 387.5,135.5 C 390.746,136.054 393.746,137.054 396.5,138.5C 393.008,138.554 390.008,137.554 387.5,135.5 Z"/></g>
<g><path style="opacity:0.137" fill="#8db889" d="M 251.5,137.5 C 253.104,138.287 253.771,139.62 253.5,141.5C 252.326,140.486 251.66,139.153 251.5,137.5 Z"/></g>
<g><path style="opacity:0.427" fill="#84b37d" d="M 396.5,138.5 C 399.067,138.721 401.401,139.388 403.5,140.5C 401.473,140.662 399.473,140.495 397.5,140C 396.944,139.617 396.611,139.117 396.5,138.5 Z"/></g>
<g><path style="opacity:0.133" fill="#9ac193" d="M 403.5,140.5 C 406.443,140.98 409.11,141.98 411.5,143.5C 408.351,143.585 405.684,142.585 403.5,140.5 Z"/></g>
<g><path style="opacity:0.145" fill="#a1c49d" d="M 665.5,89.5 C 666.911,108.363 666.744,127.363 665,146.5C 664.329,147.252 663.496,147.586 662.5,147.5C 663.428,144.546 664.261,141.546 665,138.5C 665.5,122.17 665.667,105.837 665.5,89.5 Z"/></g>
<g><path style="opacity:1" fill="#4d8e44" d="M 383.5,135.5 C 384.5,135.5 385.5,135.5 386.5,135.5C 386.833,135.5 387.167,135.5 387.5,135.5C 390.008,137.554 393.008,138.554 396.5,138.5C 396.611,139.117 396.944,139.617 397.5,140C 399.473,140.495 401.473,140.662 403.5,140.5C 405.684,142.585 408.351,143.585 411.5,143.5C 410.903,144.139 410.07,144.472 409,144.5C 406.667,143.833 404.333,143.167 402,142.5C 399.846,143.252 397.68,143.419 395.5,143C 391.836,139.849 387.836,137.349 383.5,135.5 Z"/></g>
<g><path style="opacity:0.114" fill="#99b995" d="M 253.5,141.5 C 254.167,142.167 254.833,142.833 255.5,143.5C 255.833,144.833 256.167,146.167 256.5,147.5C 256.5,147.833 256.5,148.167 256.5,148.5C 254.707,146.574 253.707,144.241 253.5,141.5 Z"/></g>
<g><path style="opacity:0.337" fill="#8fba8f" d="M 415.5,144.5 C 416.71,144.932 417.71,145.599 418.5,146.5C 416.821,146.715 415.821,146.048 415.5,144.5 Z"/></g>
<g><path style="opacity:0.784" fill="#709e6b" d="M 256.5,148.5 C 256.5,148.167 256.5,147.833 256.5,147.5C 257.496,147.414 258.329,147.748 259,148.5C 260.815,152.451 262.982,156.118 265.5,159.5C 262.427,157.431 260.094,154.764 258.5,151.5C 258.573,149.973 257.906,148.973 256.5,148.5 Z"/></g>
<g><path style="opacity:0.11" fill="#98c296" d="M 418.5,146.5 C 421.241,146.707 423.574,147.707 425.5,149.5C 424.041,149.567 422.708,149.234 421.5,148.5C 419.973,148.573 418.973,147.906 418.5,146.5 Z"/></g>
<g><path style="opacity:0.067" fill="#a5c9a2" d="M 256.5,148.5 C 257.906,148.973 258.573,149.973 258.5,151.5C 257.094,151.027 256.427,150.027 256.5,148.5 Z"/></g>
<g><path style="opacity:0.082" fill="#adcca9" d="M 425.5,149.5 C 427.027,149.427 428.027,150.094 428.5,151.5C 426.973,151.573 425.973,150.906 425.5,149.5 Z"/></g>
<g><path style="opacity:0.749" fill="#568e54" d="M 421.5,148.5 C 422.708,149.234 424.041,149.567 425.5,149.5C 425.973,150.906 426.973,151.573 428.5,151.5C 428.5,151.833 428.5,152.167 428.5,152.5C 425.318,152.416 422.985,151.083 421.5,148.5 Z"/></g>
<g><path style="opacity:0.145" fill="#9ac28e" d="M 428.5,152.5 C 428.5,152.167 428.5,151.833 428.5,151.5C 430.674,151.75 432.341,152.75 433.5,154.5C 431.716,154.107 430.05,153.441 428.5,152.5 Z"/></g>
<g><path style="opacity:0.251" fill="#89b182" d="M 662.5,147.5 C 662.649,148.552 662.483,149.552 662,150.5C 660.293,152.037 658.793,153.704 657.5,155.5C 656.833,155.5 656.167,155.5 655.5,155.5C 657.862,152.808 660.196,150.141 662.5,147.5 Z"/></g>
<g><path style="opacity:0.035" fill="#a3c89e" d="M 433.5,154.5 C 436.089,155.419 438.089,157.086 439.5,159.5C 436.911,158.581 434.911,156.914 433.5,154.5 Z"/></g>
<g><path style="opacity:0.408" fill="#83b17b" d="M 655.5,155.5 C 654.152,157.48 652.152,158.647 649.5,159C 646.207,159.826 642.874,160.326 639.5,160.5C 639.5,160.167 639.5,159.833 639.5,159.5C 645.074,159.053 650.407,157.719 655.5,155.5 Z"/></g>
<g><path style="opacity:0.412" fill="#8eb488" d="M 265.5,159.5 C 266.167,159.5 266.833,159.5 267.5,159.5C 268.5,160.833 269.5,162.167 270.5,163.5C 268.251,162.92 266.585,161.587 265.5,159.5 Z"/></g>
<g><path style="opacity:0.216" fill="#92be8d" d="M 735.5,147.5 C 735.833,147.5 736.167,147.5 736.5,147.5C 736.648,152.322 735.981,156.988 734.5,161.5C 734.167,161.5 733.833,161.5 733.5,161.5C 734.598,156.908 735.265,152.241 735.5,147.5 Z"/></g>
<g><path style="opacity:0.856" fill="#64995d" d="M 575.5,160.5 C 596.833,160.5 618.167,160.5 639.5,160.5C 639.5,161.167 639.5,161.833 639.5,162.5C 618.497,162.667 597.497,162.5 576.5,162C 575.944,161.617 575.611,161.117 575.5,160.5 Z"/></g>
<g><path style="opacity:1" fill="#4b8f43" d="M 267.5,159.5 C 270.167,159.5 272.833,159.5 275.5,159.5C 275.244,161.912 276.244,163.579 278.5,164.5C 281.427,163.199 284.427,162.199 287.5,161.5C 288.093,164.596 287.093,166.929 284.5,168.5C 286.075,169.446 287.742,169.446 289.5,168.5C 291.833,169.5 293.5,171.167 294.5,173.5C 297.107,174.318 299.774,174.818 302.5,175C 303.252,175.671 303.586,176.504 303.5,177.5C 300.63,176.366 297.63,175.7 294.5,175.5C 294.167,175.5 293.833,175.5 293.5,175.5C 292.694,174.272 291.694,173.272 290.5,172.5C 288.26,171.736 285.927,170.902 283.5,170C 282.62,168.644 282.286,167.144 282.5,165.5C 279.833,165.5 277.167,165.5 274.5,165.5C 273.395,164.4 272.062,163.733 270.5,163.5C 269.5,162.167 268.5,160.833 267.5,159.5 Z"/></g>
<g><path style="opacity:1" fill="#509049" d="M 575.5,66.5 C 575.5,67.5 575.5,68.5 575.5,69.5C 575.5,99.8333 575.5,130.167 575.5,160.5C 575.611,161.117 575.944,161.617 576.5,162C 597.497,162.5 618.497,162.667 639.5,162.5C 618.098,163.831 596.598,163.831 575,162.5C 574.169,130.331 574.336,98.3307 575.5,66.5 Z"/></g>
<g><path style="opacity:0.349" fill="#99bf94" d="M 442.5,162.5 C 444.587,163.585 445.92,165.251 446.5,167.5C 444.413,166.415 443.08,164.749 442.5,162.5 Z"/></g>
<g><path style="opacity:0.188" fill="#8ec589" d="M 270.5,163.5 C 272.062,163.733 273.395,164.4 274.5,165.5C 274.5,165.833 274.5,166.167 274.5,166.5C 272.596,166.262 271.262,165.262 270.5,163.5 Z"/></g>
<g><path style="opacity:1" fill="#45963b" d="M 576.5,164.5 C 597.5,164.5 618.5,164.5 639.5,164.5C 639.5,165.5 639.5,166.5 639.5,167.5C 618.156,167.833 596.823,167.5 575.5,166.5C 575.863,165.817 576.196,165.15 576.5,164.5 Z"/></g>
<g><path style="opacity:1" fill="#62995d" d="M 274.5,165.5 C 277.167,165.5 279.833,165.5 282.5,165.5C 282.286,167.144 282.62,168.644 283.5,170C 285.927,170.902 288.26,171.736 290.5,172.5C 289.167,172.5 287.833,172.5 286.5,172.5C 284.597,172.204 282.93,171.537 281.5,170.5C 281.027,169.094 280.027,168.427 278.5,168.5C 276.847,168.34 275.514,167.674 274.5,166.5C 274.5,166.167 274.5,165.833 274.5,165.5 Z"/></g>
<g><path style="opacity:0.098" fill="#a7cea5" d="M 278.5,168.5 C 280.027,168.427 281.027,169.094 281.5,170.5C 279.973,170.573 278.973,169.906 278.5,168.5 Z"/></g>
<g><path style="opacity:1" fill="#4c8f43" d="M 575.5,169.5 C 596.833,169.5 618.167,169.5 639.5,169.5C 639.5,170.5 639.5,171.5 639.5,172.5C 618.167,172.5 596.833,172.5 575.5,172.5C 575.5,171.5 575.5,170.5 575.5,169.5 Z"/></g>
<g><path style="opacity:0.102" fill="#a6c2a4" d="M 447.5,169.5 C 448.906,169.973 449.573,170.973 449.5,172.5C 448.094,172.027 447.427,171.027 447.5,169.5 Z"/></g>
<g><path style="opacity:0.459" fill="#92c08d" d="M 286.5,172.5 C 287.833,172.5 289.167,172.5 290.5,172.5C 291.694,173.272 292.694,174.272 293.5,175.5C 290.843,175.065 288.509,174.065 286.5,172.5 Z"/></g>
<g><path style="opacity:1" fill="#569150" d="M 439.5,159.5 C 440.833,160.167 441.833,161.167 442.5,162.5C 443.08,164.749 444.413,166.415 446.5,167.5C 447.338,167.842 447.672,168.508 447.5,169.5C 447.427,171.027 448.094,172.027 449.5,172.5C 449.5,173.5 449.5,174.5 449.5,175.5C 448.417,175.461 447.417,175.127 446.5,174.5C 443.659,169.682 441.325,164.682 439.5,159.5 Z"/></g>
<g><path style="opacity:0.094" fill="#afd2ab" d="M 449.5,172.5 C 450.674,173.514 451.34,174.847 451.5,176.5C 450.833,176.167 450.167,175.833 449.5,175.5C 449.5,174.5 449.5,173.5 449.5,172.5 Z"/></g>
<g><path style="opacity:0.098" fill="#9ec79a" d="M 733.5,161.5 C 733.833,161.5 734.167,161.5 734.5,161.5C 733.668,167.666 731.668,173.333 728.5,178.5C 729.794,172.678 731.46,167.012 733.5,161.5 Z"/></g>
<g><path style="opacity:0.302" fill="#98bd92" d="M 294.5,175.5 C 297.63,175.7 300.63,176.366 303.5,177.5C 303.5,177.833 303.5,178.167 303.5,178.5C 300.215,178.072 297.215,177.072 294.5,175.5 Z"/></g>
<g><path style="opacity:1" fill="#47933c" d="M 184.5,177.5 C 184.5,179.167 184.5,180.833 184.5,182.5C 149.851,183.459 115.184,183.792 80.5,183.5C 76.7319,182.924 73.0652,181.758 69.5,180C 72.4856,180.128 75.4856,180.128 78.5,180C 79.3333,179.167 80.1667,178.333 81,177.5C 114.627,178.087 149.127,178.087 184.5,177.5 Z"/></g>
<g><path style="opacity:1" fill="#669b5f" d="M 303.5,177.5 C 306.85,177.335 310.183,177.502 313.5,178C 321.084,180.249 328.418,182.749 335.5,185.5C 335.5,185.833 335.5,186.167 335.5,186.5C 330.908,186.118 326.575,185.118 322.5,183.5C 320.162,181.96 317.495,181.294 314.5,181.5C 312.485,180.076 310.152,179.41 307.5,179.5C 305.901,179.768 304.568,179.434 303.5,178.5C 303.5,178.167 303.5,177.833 303.5,177.5 Z"/></g>
<g><path style="opacity:0.176" fill="#9ac397" d="M 307.5,179.5 C 310.152,179.41 312.485,180.076 314.5,181.5C 311.848,181.59 309.515,180.924 307.5,179.5 Z"/></g>
<g><path style="opacity:0.282" fill="#a2c39d" d="M 451.5,177.5 C 452.946,180.254 453.946,183.254 454.5,186.5C 453.833,186.167 453.167,185.833 452.5,185.5C 452.167,182.833 451.833,180.167 451.5,177.5 Z"/></g>
<g><path style="opacity:0.184" fill="#96c390" d="M 314.5,181.5 C 317.495,181.294 320.162,181.96 322.5,183.5C 319.572,183.435 316.905,182.768 314.5,181.5 Z"/></g>
<g><path style="opacity:1" fill="#4a8c41" d="M 184.5,126.5 C 185.497,145.326 185.83,164.326 185.5,183.5C 148.013,184.129 110.68,184.796 73.5,185.5C 72.1779,185.33 71.0113,185.663 70,186.5C 69.5,208.164 69.3334,229.831 69.5,251.5C 68.5206,248.375 68.1872,245.042 68.5,241.5C 62.1184,241.228 61.9518,240.228 68,238.5C 68.3834,220.107 68.55,201.773 68.5,183.5C 72.5,183.5 76.5,183.5 80.5,183.5C 115.184,183.792 149.851,183.459 184.5,182.5C 184.5,180.833 184.5,179.167 184.5,177.5C 184.5,160.5 184.5,143.5 184.5,126.5 Z"/></g>
<g><path style="opacity:0.855" fill="#57904f" d="M 71.5,124.5 C 109.833,124.5 148.167,124.5 186.5,124.5C 186.5,144.833 186.5,165.167 186.5,185.5C 148.833,185.5 111.167,185.5 73.5,185.5C 110.68,184.796 148.013,184.129 185.5,183.5C 185.83,164.326 185.497,145.326 184.5,126.5C 183.791,125.596 182.791,125.263 181.5,125.5C 146.329,125.168 111.329,125.502 76.5,126.5C 74.2188,126.923 72.5521,126.256 71.5,124.5 Z"/></g>
<g><path style="opacity:0.38" fill="#7aa774" d="M 73.5,185.5 C 111.167,185.5 148.833,185.5 186.5,185.5C 148.167,186.167 109.833,186.833 71.5,187.5C 70.5026,209.327 70.1693,231.327 70.5,253.5C 69.6618,253.158 69.3284,252.492 69.5,251.5C 69.3334,229.831 69.5,208.164 70,186.5C 71.0113,185.663 72.1779,185.33 73.5,185.5 Z"/></g>
<g><path style="opacity:0.514" fill="#89b282" d="M 728.5,178.5 C 726.913,182.683 724.579,186.35 721.5,189.5C 722.231,184.777 724.565,181.111 728.5,178.5 Z"/></g>
<g><path style="opacity:1" fill="#4d8e44" d="M 360.5,190.5 C 355.155,188.123 349.488,187.123 343.5,187.5C 340.873,186.908 338.206,186.575 335.5,186.5C 335.5,186.167 335.5,185.833 335.5,185.5C 339.524,185.503 343.524,185.836 347.5,186.5C 348.833,186.167 350.167,185.833 351.5,185.5C 352.145,184.354 352.978,183.354 354,182.5C 356.069,183.264 358.236,183.764 360.5,184C 359.395,186.12 359.395,188.287 360.5,190.5 Z"/></g>
<g><path style="opacity:0.173" fill="#abcea6" d="M 335.5,186.5 C 338.206,186.575 340.873,186.908 343.5,187.5C 343.5,187.833 343.5,188.167 343.5,188.5C 340.572,188.435 337.905,187.768 335.5,186.5 Z"/></g>
<g><path style="opacity:0.996" fill="#6ea166" d="M 343.5,187.5 C 349.488,187.123 355.155,188.123 360.5,190.5C 363.206,190.887 365.539,191.887 367.5,193.5C 366.167,193.5 364.833,193.5 363.5,193.5C 361.485,192.076 359.152,191.41 356.5,191.5C 351.908,191.118 347.575,190.118 343.5,188.5C 343.5,188.167 343.5,187.833 343.5,187.5 Z"/></g>
<g><path style="opacity:0.031" fill="#a8d0a1" d="M 721.5,189.5 C 721.573,191.027 720.906,192.027 719.5,192.5C 719.5,192.167 719.5,191.833 719.5,191.5C 719.833,190.5 720.5,189.833 721.5,189.5 Z"/></g>
<g><path style="opacity:0.239" fill="#a3cda0" d="M 356.5,191.5 C 359.152,191.41 361.485,192.076 363.5,193.5C 360.848,193.59 358.515,192.924 356.5,191.5 Z"/></g>
<g><path style="opacity:0.945" fill="#71a26b" d="M 719.5,191.5 C 719.5,191.833 719.5,192.167 719.5,192.5C 715.08,198.256 709.747,202.922 703.5,206.5C 704.96,201.875 707.96,198.875 712.5,197.5C 712.5,196.5 712.5,195.5 712.5,194.5C 713.5,194.5 714.5,194.5 715.5,194.5C 715.5,193.5 715.5,192.5 715.5,191.5C 716.833,191.5 718.167,191.5 719.5,191.5 Z"/></g>
<g><path style="opacity:0.329" fill="#8ebc89" d="M 363.5,193.5 C 364.833,193.5 366.167,193.5 367.5,193.5C 369.076,194.143 370.41,195.143 371.5,196.5C 368.603,195.871 365.936,194.871 363.5,193.5 Z"/></g>
<g><path style="opacity:1" fill="#538d4b" d="M 367.5,193.5 C 374.82,192.85 379.82,195.85 382.5,202.5C 381.833,202.5 381.167,202.5 380.5,202.5C 379.5,202.167 378.833,201.5 378.5,200.5C 378.027,199.094 377.027,198.427 375.5,198.5C 374.817,196.824 373.483,196.157 371.5,196.5C 370.41,195.143 369.076,194.143 367.5,193.5 Z"/></g>
<g><path style="opacity:0.631" fill="#86ae81" d="M 371.5,196.5 C 373.483,196.157 374.817,196.824 375.5,198.5C 373.847,198.34 372.514,197.674 371.5,196.5 Z"/></g>
<g><path style="opacity:0.216" fill="#9cc496" d="M 375.5,198.5 C 377.027,198.427 378.027,199.094 378.5,200.5C 376.973,200.573 375.973,199.906 375.5,198.5 Z"/></g>
<g><path style="opacity:0.475" fill="#92b38b" d="M 380.5,202.5 C 381.167,202.5 381.833,202.5 382.5,202.5C 383.038,204.117 383.371,205.784 383.5,207.5C 382.263,206.035 381.263,204.368 380.5,202.5 Z"/></g>
<g><path style="opacity:1" fill="#48933d" d="M 591.5,206.5 C 607.5,206.5 623.5,206.5 639.5,206.5C 639.67,207.822 639.337,208.989 638.5,210C 617.384,211.085 596.384,210.418 575.5,208C 581.016,207.827 586.349,207.327 591.5,206.5 Z"/></g>
<g><path style="opacity:0.687" fill="#518b4b" d="M 452.5,185.5 C 453.167,185.833 453.833,186.167 454.5,186.5C 454.5,187.5 454.5,188.5 454.5,189.5C 455.733,208.99 455.733,228.324 454.5,247.5C 454.934,226.755 454.267,206.088 452.5,185.5 Z"/></g>
<g><path style="opacity:0.4" fill="#88b485" d="M 700.5,207.5 C 698.388,209.771 695.721,211.104 692.5,211.5C 692.5,211.167 692.5,210.833 692.5,210.5C 694.896,208.977 697.562,207.977 700.5,207.5 Z"/></g>
<g><path style="opacity:0.086" fill="#b4d9ae" d="M 383.5,207.5 C 383.833,207.5 384.167,207.5 384.5,207.5C 384.833,209.5 385.167,211.5 385.5,213.5C 385.5,214.833 385.5,216.167 385.5,217.5C 384.419,214.373 383.753,211.04 383.5,207.5 Z"/></g>
<g><path style="opacity:1" fill="#46933d" d="M 648.5,213.5 C 652.935,213.72 657.102,213.72 661,213.5C 664.417,215.072 664.251,216.239 660.5,217C 634.486,217.233 608.486,217.733 582.5,218.5C 582.5,217.5 582.5,216.5 582.5,215.5C 601.971,215.107 620.471,215.107 638,215.5C 641.603,214.865 645.103,214.198 648.5,213.5 Z"/></g>
<g><path style="opacity:0.13" fill="#8fb98b" d="M 454.5,189.5 C 455.314,191.631 455.814,193.964 456,196.5C 456.667,214.5 456.667,232.5 456,250.5C 455.814,253.036 455.314,255.369 454.5,257.5C 454.5,254.167 454.5,250.833 454.5,247.5C 455.733,228.324 455.733,208.99 454.5,189.5 Z"/></g>
<g><path style="opacity:0.122" fill="#9dca97" d="M 673.5,217.5 C 671.343,218.407 669.01,219.073 666.5,219.5C 666.611,218.883 666.944,218.383 667.5,218C 669.473,217.505 671.473,217.338 673.5,217.5 Z"/></g>
<g><path style="opacity:0.86" fill="#679960" d="M 692.5,210.5 C 692.5,210.833 692.5,211.167 692.5,211.5C 686.635,214.676 680.301,216.676 673.5,217.5C 671.473,217.338 669.473,217.505 667.5,218C 666.944,218.383 666.611,218.883 666.5,219.5C 657.578,221.037 648.578,221.704 639.5,221.5C 618.167,221.5 596.833,221.5 575.5,221.5C 602.153,219.747 629.153,218.747 656.5,218.5C 668.666,216.773 680.666,214.107 692.5,210.5 Z"/></g>
<g><path style="opacity:1" fill="#4d8a44" d="M 384.5,207.5 C 385.5,207.5 386.5,207.5 387.5,207.5C 388.488,220.152 388.655,232.819 388,245.5C 385.343,248.147 383.177,251.147 381.5,254.5C 381.977,255.478 382.643,256.311 383.5,257C 381.167,258.043 378.834,258.876 376.5,259.5C 373.189,259.909 370.189,261.076 367.5,263C 362.177,263.499 356.844,263.666 351.5,263.5C 340.654,263.828 329.987,263.494 319.5,262.5C 332.677,262.829 345.677,262.495 358.5,261.5C 363.142,260.778 367.809,259.944 372.5,259C 374.093,258.051 375.426,256.885 376.5,255.5C 379.946,254.388 381.946,252.055 382.5,248.5C 383.117,248.389 383.617,248.056 384,247.5C 386.629,236.126 387.129,224.793 385.5,213.5C 385.167,211.5 384.833,209.5 384.5,207.5 Z"/></g>
<g><path style="opacity:0.138" fill="#a5c7a2" d="M 575.5,221.5 C 596.833,221.5 618.167,221.5 639.5,221.5C 618.673,222.497 597.673,222.831 576.5,222.5C 576.5,253.833 576.5,285.167 576.5,316.5C 553.163,317.714 529.83,317.714 506.5,316.5C 506.5,316.167 506.5,315.833 506.5,315.5C 529.5,315.5 552.5,315.5 575.5,315.5C 575.5,284.833 575.5,254.167 575.5,223.5C 575.5,222.833 575.5,222.167 575.5,221.5 Z"/></g>
<g><path style="opacity:0.341" fill="#95bc8e" d="M 385.5,213.5 C 387.129,224.793 386.629,236.126 384,247.5C 383.617,248.056 383.117,248.389 382.5,248.5C 385.01,238.342 386.01,228.009 385.5,217.5C 385.5,216.167 385.5,214.833 385.5,213.5 Z"/></g>
<g><path style="opacity:0.412" fill="#83ae7c" d="M 257.5,247.5 C 258.791,247.263 259.791,247.596 260.5,248.5C 260.5,248.833 260.5,249.167 260.5,249.5C 259.833,249.5 259.167,249.5 258.5,249.5C 256.611,248.258 254.611,248.258 252.5,249.5C 253.552,247.744 255.219,247.077 257.5,247.5 Z"/></g>
<g><path style="opacity:0.149" fill="#b5d5ae" d="M 257.5,247.5 C 255.219,247.077 253.552,247.744 252.5,249.5C 251.869,252.702 250.869,255.702 249.5,258.5C 250.038,254.476 250.705,250.476 251.5,246.5C 253.735,246.205 255.735,246.539 257.5,247.5 Z"/></g>
<g><path style="opacity:0.978" fill="#56904d" d="M 261.5,249.5 C 269.948,252.445 278.614,254.445 287.5,255.5C 288.167,255.5 288.833,255.5 289.5,255.5C 289.611,256.117 289.944,256.617 290.5,257C 310.978,260.909 331.644,262.409 352.5,261.5C 354.5,261.5 356.5,261.5 358.5,261.5C 345.677,262.495 332.677,262.829 319.5,262.5C 311.745,262.516 304.079,261.683 296.5,260C 285.496,257.341 274.496,255.007 263.5,253C 262.695,251.887 262.028,250.721 261.5,249.5 Z"/></g>
<g><path style="opacity:0.114" fill="#a0c49a" d="M 260.5,249.5 C 260.5,249.167 260.5,248.833 260.5,248.5C 269.72,250.387 278.72,252.721 287.5,255.5C 278.614,254.445 269.948,252.445 261.5,249.5C 261.167,249.5 260.833,249.5 260.5,249.5 Z"/></g>
<g><path style="opacity:0.239" fill="#94bc8e" d="M 71.5,187.5 C 71.173,209.409 71.5063,231.242 72.5,253C 114.002,253.167 155.335,253.667 196.5,254.5C 154.833,254.5 113.167,254.5 71.5,254.5C 71.5,253.833 71.1667,253.5 70.5,253.5C 70.1693,231.327 70.5026,209.327 71.5,187.5 Z"/></g>
<g><path style="opacity:0.561" fill="#679b66" d="M 453.5,247.5 C 453.833,247.5 454.167,247.5 454.5,247.5C 454.5,250.833 454.5,254.167 454.5,257.5C 454.5,258.5 454.5,259.5 454.5,260.5C 453.833,260.833 453.167,261.167 452.5,261.5C 453.383,256.897 453.717,252.23 453.5,247.5 Z"/></g>
<g><path style="opacity:0.282" fill="#93bb8c" d="M 382.5,248.5 C 381.946,252.055 379.946,254.388 376.5,255.5C 378.529,253.142 380.529,250.808 382.5,248.5 Z"/></g>
<g><path style="opacity:0.392" fill="#9ec598" d="M 289.5,255.5 C 310.305,259.428 331.305,261.095 352.5,260.5C 352.5,260.833 352.5,261.167 352.5,261.5C 331.644,262.409 310.978,260.909 290.5,257C 289.944,256.617 289.611,256.117 289.5,255.5 Z"/></g>
<g><path style="opacity:1" fill="#47933c" d="M 194.5,256.5 C 194.5,275.5 194.5,294.5 194.5,313.5C 193.5,313.5 192.5,313.5 191.5,313.5C 129.167,313.5 66.8333,313.5 4.5,313.5C 4.5,312.167 4.5,310.833 4.5,309.5C 8.15346,307.772 11.3201,308.438 14,311.5C 15,310.5 16,309.5 17,308.5C 74.6667,308.833 132.333,309.167 190,309.5C 190.49,308.207 190.657,306.873 190.5,305.5C 132.157,306.163 74.1571,305.496 16.5,303.5C 74.5,303.5 132.5,303.5 190.5,303.5C 190.333,288.496 190.5,273.496 191,258.5C 191.71,257.027 192.876,256.36 194.5,256.5 Z"/></g>
<g><path style="opacity:0.165" fill="#96bd90" d="M 376.5,255.5 C 375.426,256.885 374.093,258.051 372.5,259C 367.809,259.944 363.142,260.778 358.5,261.5C 356.5,261.5 354.5,261.5 352.5,261.5C 352.5,261.167 352.5,260.833 352.5,260.5C 360.871,260.456 368.871,258.79 376.5,255.5 Z"/></g>
<g><path style="opacity:0.227" fill="#9cc099" d="M 454.5,260.5 C 454.279,263.067 453.612,265.401 452.5,267.5C 452.5,265.5 452.5,263.5 452.5,261.5C 453.167,261.167 453.833,260.833 454.5,260.5 Z"/></g>
<g><path style="opacity:1" fill="#46933d" d="M 376.5,259.5 C 378.833,259.5 381.167,259.5 383.5,259.5C 383.5,260.5 383.5,261.5 383.5,262.5C 378.312,262.354 373.645,263.688 369.5,266.5C 370.5,267.833 371.5,269.167 372.5,270.5C 368.88,273.495 367.213,272.495 367.5,267.5C 360.275,267.786 352.608,268.453 344.5,269.5C 341.833,269.333 339.167,269.167 336.5,269C 335.584,268.626 334.75,268.126 334,267.5C 330,267.5 326,267.5 322,267.5C 320.411,269.566 318.578,271.232 316.5,272.5C 312.456,271.994 308.122,271.494 303.5,271C 304,270.5 304.5,270 305,269.5C 308,269.5 311,269.5 314,269.5C 320.293,264.884 327.46,263.384 335.5,265C 336.416,265.374 337.25,265.874 338,266.5C 342,266.5 346,266.5 350,266.5C 351.039,265.756 351.539,264.756 351.5,263.5C 356.844,263.666 362.177,263.499 367.5,263C 370.189,261.076 373.189,259.909 376.5,259.5 Z"/></g>
<g><path style="opacity:0.893" fill="#528f4e" d="M 453.5,247.5 C 453.717,252.23 453.383,256.897 452.5,261.5C 452.5,263.5 452.5,265.5 452.5,267.5C 450.72,268.99 450.054,270.99 450.5,273.5C 450.737,274.791 450.404,275.791 449.5,276.5C 448.833,276.833 448.167,277.167 447.5,277.5C 450.143,267.587 452.143,257.587 453.5,247.5 Z"/></g>
<g><path style="opacity:0.302" fill="#8db586" d="M 452.5,267.5 C 452.405,269.786 451.738,271.786 450.5,273.5C 450.054,270.99 450.72,268.99 452.5,267.5 Z"/></g>
<g><path style="opacity:0.486" fill="#9cc396" d="M 248.5,263.5 C 248.664,266.187 248.497,268.854 248,271.5C 247.722,272.416 247.222,273.082 246.5,273.5C 246.753,269.96 247.419,266.627 248.5,263.5 Z"/></g>
<g><path style="opacity:1" fill="#5d9455" d="M 258.5,249.5 C 256.278,249.178 254.444,249.845 253,251.5C 252.531,257.386 251.698,263.219 250.5,269C 251.424,272.969 250.091,276.135 246.5,278.5C 246.5,276.833 246.5,275.167 246.5,273.5C 247.222,273.082 247.722,272.416 248,271.5C 248.497,268.854 248.664,266.187 248.5,263.5C 248.366,261.708 248.699,260.042 249.5,258.5C 250.869,255.702 251.869,252.702 252.5,249.5C 254.611,248.258 256.611,248.258 258.5,249.5 Z"/></g>
<g><path style="opacity:1" fill="#45953c" d="M 444.5,281.5 C 444.167,281.5 443.833,281.5 443.5,281.5C 442.624,281.369 441.957,281.702 441.5,282.5C 440.811,284.444 440.311,286.444 440,288.5C 438.649,289.961 437.149,291.294 435.5,292.5C 434.571,293.689 434.238,295.022 434.5,296.5C 433.167,296.5 431.833,296.5 430.5,296.5C 429.122,295.766 427.622,295.099 426,294.5C 425.517,293.552 425.351,292.552 425.5,291.5C 428.466,291.89 431.132,291.223 433.5,289.5C 433.596,285.869 434.43,282.203 436,278.5C 436.833,277.667 437.667,276.833 438.5,276C 441.388,276.827 443.888,275.994 446,273.5C 446.891,276.498 446.391,279.164 444.5,281.5 Z"/></g>
<g><path style="opacity:0.165" fill="#91bb88" d="M 449.5,276.5 C 449.34,278.153 448.674,279.486 447.5,280.5C 447.5,279.5 447.5,278.5 447.5,277.5C 448.167,277.167 448.833,276.833 449.5,276.5 Z"/></g>
<g><path style="opacity:1" fill="#45943c" d="M 253.5,303.5 C 253.5,303.167 253.5,302.833 253.5,302.5C 254.938,298.191 254.605,294.024 252.5,290C 251.517,289.409 250.85,289.743 250.5,291C 249.922,292.811 249.422,294.645 249,296.5C 247.989,297.337 246.822,297.67 245.5,297.5C 245.5,295.833 245.5,294.167 245.5,292.5C 245.216,290.585 245.549,288.919 246.5,287.5C 247.179,284.486 248.679,281.82 251,279.5C 251.5,281 252,282.5 252.5,284C 250.973,286.338 251.639,287.838 254.5,288.5C 255.222,292.847 255.888,297.18 256.5,301.5C 263.528,302.294 270.194,303.961 276.5,306.5C 276.5,307.5 276.5,308.5 276.5,309.5C 269.102,306.653 261.436,304.653 253.5,303.5 Z"/></g>
<g><path style="opacity:0.133" fill="#add3a9" d="M 246.5,273.5 C 246.5,275.167 246.5,276.833 246.5,278.5C 246.5,278.833 246.5,279.167 246.5,279.5C 245.833,280.167 245.167,280.833 244.5,281.5C 244.565,278.572 245.232,275.905 246.5,273.5 Z"/></g>
<g><path style="opacity:0.908" fill="#689a60" d="M 447.5,280.5 C 447.008,282.819 446.008,284.819 444.5,286.5C 443.094,286.973 442.427,287.973 442.5,289.5C 442.5,290.167 442.167,290.5 441.5,290.5C 441.413,287.261 442.08,284.261 443.5,281.5C 443.833,281.5 444.167,281.5 444.5,281.5C 445.609,281.443 446.609,281.11 447.5,280.5 Z"/></g>
<g><path style="opacity:0.047" fill="#a8c9a3" d="M 444.5,286.5 C 444.573,288.027 443.906,289.027 442.5,289.5C 442.427,287.973 443.094,286.973 444.5,286.5 Z"/></g>
<g><path style="opacity:1" fill="#4a8d42" d="M 443.5,281.5 C 442.08,284.261 441.413,287.261 441.5,290.5C 440.128,291.512 438.795,292.512 437.5,293.5C 436.1,294.1 435.1,295.1 434.5,296.5C 434.238,295.022 434.571,293.689 435.5,292.5C 437.149,291.294 438.649,289.961 440,288.5C 440.311,286.444 440.811,284.444 441.5,282.5C 441.957,281.702 442.624,281.369 443.5,281.5 Z"/></g>
<g><path style="opacity:0.271" fill="#8db789" d="M 441.5,290.5 C 440.92,292.749 439.587,294.415 437.5,295.5C 437.5,294.833 437.5,294.167 437.5,293.5C 438.795,292.512 440.128,291.512 441.5,290.5 Z"/></g>
<g><path style="opacity:1" fill="#4a9141" d="M 253.5,302.5 C 252.069,302.119 251.236,301.119 251,299.5C 250,300.167 249,300.833 248,301.5C 246.989,300.663 245.822,300.33 244.5,300.5C 244.194,297.615 244.527,294.948 245.5,292.5C 245.5,294.167 245.5,295.833 245.5,297.5C 246.822,297.67 247.989,297.337 249,296.5C 249.422,294.645 249.922,292.811 250.5,291C 250.85,289.743 251.517,289.409 252.5,290C 254.605,294.024 254.938,298.191 253.5,302.5 Z"/></g>
<g><path style="opacity:1" fill="#679c60" d="M 437.5,293.5 C 437.5,294.167 437.5,294.833 437.5,295.5C 436.5,297.167 435.167,298.5 433.5,299.5C 432.167,299.5 431.5,300.167 431.5,301.5C 431.158,302.338 430.492,302.672 429.5,302.5C 428.833,302.5 428.167,302.5 427.5,302.5C 428.65,300.603 429.65,298.603 430.5,296.5C 431.833,296.5 433.167,296.5 434.5,296.5C 435.1,295.1 436.1,294.1 437.5,293.5 Z"/></g>
<g><path style="opacity:0.098" fill="#bddbb8" d="M 242.5,291.5 C 242.5,293.5 242.5,295.5 242.5,297.5C 241.566,298.568 241.232,299.901 241.5,301.5C 240.29,298.07 240.624,294.737 242.5,291.5 Z"/></g>
<g><path style="opacity:0.522" fill="#90b88a" d="M 242.5,297.5 C 242.351,298.552 242.517,299.552 243,300.5C 245.824,301.818 248.324,303.485 250.5,305.5C 247.088,304.925 244.088,303.592 241.5,301.5C 241.232,299.901 241.566,298.568 242.5,297.5 Z"/></g>
<g><path style="opacity:0.998" fill="#5e9757" d="M 246.5,279.5 C 246.5,282.167 246.5,284.833 246.5,287.5C 245.549,288.919 245.216,290.585 245.5,292.5C 244.527,294.948 244.194,297.615 244.5,300.5C 245.822,300.33 246.989,300.663 248,301.5C 249,300.833 250,300.167 251,299.5C 251.236,301.119 252.069,302.119 253.5,302.5C 253.5,302.833 253.5,303.167 253.5,303.5C 253.833,304.167 254.167,304.833 254.5,305.5C 253.5,305.5 252.5,305.5 251.5,305.5C 251.167,305.5 250.833,305.5 250.5,305.5C 248.324,303.485 245.824,301.818 243,300.5C 242.517,299.552 242.351,298.552 242.5,297.5C 242.5,295.5 242.5,293.5 242.5,291.5C 242.54,288.012 243.207,284.679 244.5,281.5C 245.167,280.833 245.833,280.167 246.5,279.5 Z"/></g>
<g><path style="opacity:0.063" fill="#b0cbb0" d="M 433.5,299.5 C 433.167,300.5 432.5,301.167 431.5,301.5C 431.5,300.167 432.167,299.5 433.5,299.5 Z"/></g>
<g><path style="opacity:0.027" fill="#b4d2b0" d="M 427.5,302.5 C 428.167,302.5 428.833,302.5 429.5,302.5C 429.027,303.906 428.027,304.573 426.5,304.5C 426.833,303.833 427.167,303.167 427.5,302.5 Z"/></g>
<g><path style="opacity:0.016" fill="#aecea9" d="M 426.5,304.5 C 426.027,305.906 425.027,306.573 423.5,306.5C 423.821,304.952 424.821,304.285 426.5,304.5 Z"/></g>
<g><path style="opacity:0.251" fill="#a1c89c" d="M 251.5,305.5 C 252.5,305.5 253.5,305.5 254.5,305.5C 255.391,306.11 256.391,306.443 257.5,306.5C 257.833,307.167 258.167,307.833 258.5,308.5C 255.843,308.065 253.509,307.065 251.5,305.5 Z"/></g>
<g><path style="opacity:0.133" fill="#9ec697" d="M 423.5,306.5 C 420.26,308.951 416.593,310.618 412.5,311.5C 415.72,309.06 419.387,307.393 423.5,306.5 Z"/></g>
<g><path style="opacity:0.894" fill="#5c8e56" d="M 257.5,306.5 C 260.948,305.901 263.614,306.901 265.5,309.5C 263.565,308.85 261.565,308.517 259.5,308.5C 259.167,308.5 258.833,308.5 258.5,308.5C 258.167,307.833 257.833,307.167 257.5,306.5 Z"/></g>
<g><path style="opacity:1" fill="#58934f" d="M 427.5,302.5 C 427.167,303.167 426.833,303.833 426.5,304.5C 424.821,304.285 423.821,304.952 423.5,306.5C 419.387,307.393 415.72,309.06 412.5,311.5C 410.064,312.871 407.397,313.871 404.5,314.5C 404.5,314.167 404.5,313.833 404.5,313.5C 404.461,312.417 404.127,311.417 403.5,310.5C 401.851,309.852 400.518,308.852 399.5,307.5C 400,307.167 400.5,306.833 401,306.5C 402.667,307.167 404.333,307.833 406,308.5C 408.099,307.602 410.266,307.602 412.5,308.5C 417.296,306.05 422.296,304.05 427.5,302.5 Z"/></g>
<g><path style="opacity:0.255" fill="#aacaa7" d="M 259.5,308.5 C 261.565,308.517 263.565,308.85 265.5,309.5C 266.167,309.5 266.5,309.833 266.5,310.5C 263.848,310.59 261.515,309.924 259.5,308.5 Z"/></g>
<g><path style="opacity:0.165" fill="#a8c8a3" d="M 266.5,310.5 C 267.833,310.5 269.167,310.5 270.5,310.5C 271.5,311.167 272.5,311.833 273.5,312.5C 270.848,312.59 268.515,311.924 266.5,310.5 Z"/></g>
<g><path style="opacity:0.824" fill="#74a26c" d="M 270.5,310.5 C 273.522,310.804 276.522,311.304 279.5,312C 280.756,312.417 281.423,313.25 281.5,314.5C 278.572,314.435 275.905,313.768 273.5,312.5C 272.5,311.833 271.5,311.167 270.5,310.5 Z"/></g>
<g><path style="opacity:0.794" fill="#508548" d="M 71.5,254.5 C 113.167,254.5 154.833,254.5 196.5,254.5C 196.5,274.833 196.5,295.167 196.5,315.5C 131.5,315.5 66.5,315.5 1.5,315.5C 1.5,315.167 1.5,314.833 1.5,314.5C 65.0022,314.832 128.336,314.499 191.5,313.5C 192.5,313.5 193.5,313.5 194.5,313.5C 194.5,294.5 194.5,275.5 194.5,256.5C 153.5,255.833 112.5,255.167 71.5,254.5 Z"/></g>
<g><path style="opacity:0.996" fill="#5b9952" d="M 404.5,313.5 C 404.5,313.833 404.5,314.167 404.5,314.5C 402.958,315.301 401.292,315.634 399.5,315.5C 397.5,315.5 395.5,315.5 393.5,315.5C 390.813,315.336 388.146,315.503 385.5,316C 384.584,316.278 383.918,316.778 383.5,317.5C 382.5,318.167 381.5,318.833 380.5,319.5C 375.87,320.229 371.203,320.563 366.5,320.5C 367.103,318.321 367.77,316.154 368.5,314C 380.51,314.523 392.51,314.356 404.5,313.5 Z"/></g>
<g><path style="opacity:0.842" fill="#51894a" d="M 575.5,223.5 C 575.5,254.167 575.5,284.833 575.5,315.5C 552.5,315.5 529.5,315.5 506.5,315.5C 506.5,315.167 506.5,314.833 506.5,314.5C 507.167,314.5 507.833,314.5 508.5,314.5C 530.5,314.5 552.5,314.5 574.5,314.5C 574.169,283.995 574.502,253.662 575.5,223.5 Z"/></g>
<g><path style="opacity:0.211" fill="#95b88f" d="M 196.5,254.5 C 197.497,274.993 197.831,295.66 197.5,316.5C 131.5,316.5 65.5,316.5 -0.5,316.5C -0.5,316.167 -0.5,315.833 -0.5,315.5C 0.166667,315.5 0.833333,315.5 1.5,315.5C 66.5,315.5 131.5,315.5 196.5,315.5C 196.5,295.167 196.5,274.833 196.5,254.5 Z"/></g>
<g><path style="opacity:0.49" fill="#85b380" d="M 281.5,314.5 C 284.167,314.5 286.833,314.5 289.5,314.5C 292.684,315.323 296.017,315.99 299.5,316.5C 299.5,316.833 299.5,317.167 299.5,317.5C 298.5,317.5 297.5,317.5 296.5,317.5C 291.256,317.118 286.256,316.118 281.5,314.5 Z"/></g>
<g><path style="opacity:0.929" fill="#659c5e" d="M 319.5,318.5 C 319.5,318.833 319.5,319.167 319.5,319.5C 317.167,319.5 314.833,319.5 312.5,319.5C 310.5,319.5 308.5,319.5 306.5,319.5C 304.485,318.076 302.152,317.41 299.5,317.5C 299.5,317.167 299.5,316.833 299.5,316.5C 302.448,316.777 305.281,316.444 308,315.5C 308.483,316.448 308.649,317.448 308.5,318.5C 312.167,318.5 315.833,318.5 319.5,318.5 Z"/></g>
<g><path style="opacity:1" fill="#498b41" d="M 289.5,314.5 C 297.174,314.334 304.841,314.5 312.5,315C 314.97,316.021 317.304,317.188 319.5,318.5C 315.833,318.5 312.167,318.5 308.5,318.5C 308.649,317.448 308.483,316.448 308,315.5C 305.281,316.444 302.448,316.777 299.5,316.5C 296.017,315.99 292.684,315.323 289.5,314.5 Z"/></g>
<g><path style="opacity:0.724" fill="#60915a" d="M 393.5,315.5 C 392.833,316.167 392.167,316.833 391.5,317.5C 388.833,317.5 386.167,317.5 383.5,317.5C 383.918,316.778 384.584,316.278 385.5,316C 388.146,315.503 390.813,315.336 393.5,315.5 Z"/></g>
<g><path style="opacity:0.016" fill="#b0d3ac" d="M 393.5,315.5 C 395.5,315.5 397.5,315.5 399.5,315.5C 397.095,316.768 394.428,317.435 391.5,317.5C 392.167,316.833 392.833,316.167 393.5,315.5 Z"/></g>
<g><path style="opacity:0.102" fill="#b6deb1" d="M 296.5,317.5 C 297.5,317.5 298.5,317.5 299.5,317.5C 302.152,317.41 304.485,318.076 306.5,319.5C 302.96,319.247 299.627,318.581 296.5,317.5 Z"/></g>
<g><path style="opacity:0.098" fill="#abd6a6" d="M 383.5,317.5 C 386.167,317.5 388.833,317.5 391.5,317.5C 388.026,318.525 384.36,319.192 380.5,319.5C 381.5,318.833 382.5,318.167 383.5,317.5 Z"/></g>
<g><path style="opacity:0.074" fill="#adcda9" d="M 312.5,319.5 C 314.833,319.5 317.167,319.5 319.5,319.5C 335.149,320.363 350.816,320.696 366.5,320.5C 359.174,321.166 351.674,321.5 344,321.5C 333.287,321.702 322.787,321.035 312.5,319.5 Z"/></g>
</svg>
