<?xml version="1.0" encoding="UTF-8"?>
<!DOCTYPE svg PUBLIC "-//W3C//DTD SVG 1.1//EN" "http://www.w3.org/Graphics/SVG/1.1/DTD/svg11.dtd">
<svg xmlns="http://www.w3.org/2000/svg" version="1.1" width="431px" height="487px" style="shape-rendering:geometricPrecision; text-rendering:geometricPrecision; image-rendering:optimizeQuality; fill-rule:evenodd; clip-rule:evenodd" xmlns:xlink="http://www.w3.org/1999/xlink">
<g><path style="opacity:1" fill="#7e9cc9" d="M 253.5,-0.5 C 266.5,-0.5 279.5,-0.5 292.5,-0.5C 292.804,0.14987 293.137,0.816537 293.5,1.5C 289.741,10.6774 285.741,19.6774 281.5,28.5C 283.955,19.2965 287.289,10.4632 291.5,2C 278.838,1.50012 266.171,1.33345 253.5,1.5C 253.539,4.08896 252.539,6.08896 250.5,7.5C 250.94,4.62021 251.94,1.95354 253.5,-0.5 Z"/></g>
<g><path style="opacity:1" fill="#044899" d="M 281.5,28.5 C 281.672,29.4916 281.338,30.1583 280.5,30.5C 278.078,34.0764 276.411,38.0764 275.5,42.5C 273.257,46.6856 271.09,51.0189 269,55.5C 268.023,57.74 267.523,60.0733 267.5,62.5C 265.393,65.0567 264.059,68.0567 263.5,71.5C 261.215,74.335 259.882,77.6684 259.5,81.5C 258.736,84.0177 257.736,86.351 256.5,88.5C 254.215,91.335 252.882,94.6684 252.5,98.5C 250.896,99.287 250.229,100.62 250.5,102.5C 248.597,105.53 247.263,108.863 246.5,112.5C 244.552,114.32 243.552,116.654 243.5,119.5C 242.069,120.78 241.402,122.447 241.5,124.5C 241.443,125.609 241.11,126.609 240.5,127.5C 238.065,131.258 235.898,135.258 234,139.5C 232.198,144.095 230.698,148.762 229.5,153.5C 226.781,156.952 225.115,160.952 224.5,165.5C 221.688,168.913 220.021,172.913 219.5,177.5C 217.375,180.088 216.042,183.088 215.5,186.5C 213.733,188.792 212.733,191.458 212.5,194.5C 212.672,195.492 212.338,196.158 211.5,196.5C 209.206,199.37 207.872,202.703 207.5,206.5C 205.375,209.088 204.042,212.088 203.5,215.5C 199.761,221.659 197.094,228.325 195.5,235.5C 195.672,236.492 195.338,237.158 194.5,237.5C 192.552,239.32 191.552,241.654 191.5,244.5C 189.935,246.509 188.935,248.843 188.5,251.5C 187.883,251.611 187.383,251.944 187,252.5C 185.389,257.165 183.889,261.832 182.5,266.5C 180.552,268.32 179.552,270.654 179.5,273.5C 165.829,273.667 152.163,273.5 138.5,273C 140.497,270.508 141.497,267.675 141.5,264.5C 141.796,262.597 142.463,260.93 143.5,259.5C 145.448,257.68 146.448,255.346 146.5,252.5C 148.818,250.815 149.818,248.481 149.5,245.5C 149.796,243.597 150.463,241.93 151.5,240.5C 155.369,235.912 157.702,230.578 158.5,224.5C 159.79,223.942 160.623,222.942 161,221.5C 162.43,218.647 163.263,215.647 163.5,212.5C 165.834,210.824 166.834,208.491 166.5,205.5C 168.834,203.824 169.834,201.491 169.5,198.5C 171.834,196.824 172.834,194.491 172.5,191.5C 172.796,189.597 173.463,187.93 174.5,186.5C 176.834,184.824 177.834,182.491 177.5,179.5C 179.834,177.824 180.834,175.491 180.5,172.5C 181.931,171.22 182.598,169.553 182.5,167.5C 182.328,166.508 182.662,165.842 183.5,165.5C 185.834,163.824 186.834,161.491 186.5,158.5C 187.648,154.213 189.315,150.213 191.5,146.5C 193.834,144.824 194.834,142.491 194.5,139.5C 195.79,138.942 196.623,137.942 197,136.5C 198.759,132.991 199.926,129.325 200.5,125.5C 202.834,123.824 203.834,121.491 203.5,118.5C 205.834,116.824 206.834,114.491 206.5,111.5C 208.834,109.824 209.834,107.491 209.5,104.5C 209.5,104.167 209.5,103.833 209.5,103.5C 213.5,94.1667 217.5,84.8333 221.5,75.5C 222.345,74.3285 223.011,72.9952 223.5,71.5C 223.557,70.391 223.89,69.391 224.5,68.5C 226.834,66.8243 227.834,64.491 227.5,61.5C 228.766,60.9101 230.099,60.4101 231.5,60C 230.978,59.4387 230.645,58.772 230.5,58C 231.956,54.6005 232.956,51.1005 233.5,47.5C 236.707,44.2321 238.373,40.2321 238.5,35.5C 240.818,33.8148 241.818,31.4815 241.5,28.5C 243.834,26.8243 244.834,24.491 244.5,21.5C 247.843,17.4903 249.843,12.8236 250.5,7.5C 252.539,6.08896 253.539,4.08896 253.5,1.5C 266.171,1.33345 278.838,1.50012 291.5,2C 287.289,10.4632 283.955,19.2965 281.5,28.5 Z"/></g>
<g><path style="opacity:1" fill="#6e8fc1" d="M 250.5,7.5 C 249.843,12.8236 247.843,17.4903 244.5,21.5C 245.982,16.5437 247.982,11.877 250.5,7.5 Z"/></g>
<g><path style="opacity:1" fill="#799bc7" d="M 244.5,21.5 C 244.834,24.491 243.834,26.8243 241.5,28.5C 241.935,25.8427 242.935,23.5093 244.5,21.5 Z"/></g>
<g><path style="opacity:0.208" fill="#9db5d6" d="M 241.5,28.5 C 241.818,31.4815 240.818,33.8148 238.5,35.5C 239.088,32.9369 240.088,30.6036 241.5,28.5 Z"/></g>
<g><path style="opacity:0.38" fill="#97b2d4" d="M 280.5,30.5 C 279.597,34.8892 277.931,38.8892 275.5,42.5C 276.411,38.0764 278.078,34.0764 280.5,30.5 Z"/></g>
<g><path style="opacity:1" fill="#7092c3" d="M 238.5,35.5 C 238.373,40.2321 236.707,44.2321 233.5,47.5C 234.784,43.3074 236.451,39.3074 238.5,35.5 Z"/></g>
<g><path style="opacity:0.322" fill="#99b3d4" d="M 275.5,42.5 C 273.4,49.4817 270.733,56.1484 267.5,62.5C 267.523,60.0733 268.023,57.74 269,55.5C 271.09,51.0189 273.257,46.6856 275.5,42.5 Z"/></g>
<g><path style="opacity:1" fill="#5779b5" d="M 233.5,47.5 C 232.956,51.1005 231.956,54.6005 230.5,58C 230.645,58.772 230.978,59.4387 231.5,60C 230.099,60.4101 228.766,60.9101 227.5,61.5C 228.988,56.5329 230.988,51.8662 233.5,47.5 Z"/></g>
<g><path style="opacity:1" fill="#7c9cc8" d="M 227.5,61.5 C 227.834,64.491 226.834,66.8243 224.5,68.5C 224.935,65.8427 225.935,63.5093 227.5,61.5 Z"/></g>
<g><path style="opacity:0.298" fill="#a4bcda" d="M 267.5,62.5 C 266.925,65.9116 265.592,68.9116 263.5,71.5C 264.059,68.0567 265.393,65.0567 267.5,62.5 Z"/></g>
<g><path style="opacity:1" fill="#ee726a" d="M 223.5,71.5 C 223.011,72.9952 222.345,74.3285 221.5,75.5C 199.859,73.5108 177.859,72.8441 155.5,73.5C 158.641,72.6787 161.975,72.1787 165.5,72C 184.83,71.5 204.164,71.3334 223.5,71.5 Z"/></g>
<g><path style="opacity:1" fill="#e1221e" d="M 155.5,73.5 C 177.859,72.8441 199.859,73.5108 221.5,75.5C 217.5,84.8333 213.5,94.1667 209.5,103.5C 195.15,103.481 180.816,103.981 166.5,105C 160.832,105.231 155.499,106.398 150.5,108.5C 149.432,109.434 148.099,109.768 146.5,109.5C 142.292,109.677 138.626,111.01 135.5,113.5C 133.579,114.363 131.579,115.029 129.5,115.5C 127.447,115.402 125.78,116.069 124.5,117.5C 121.911,117.461 119.911,118.461 118.5,120.5C 110.2,124.985 102.2,129.985 94.5,135.5C 92.9731,135.427 91.9731,136.094 91.5,137.5C 90.8333,138.833 89.8333,139.833 88.5,140.5C 86.9731,140.427 85.9731,141.094 85.5,142.5C 84.1667,144.5 82.5,146.167 80.5,147.5C 79.5768,146.697 78.5768,146.53 77.5,147C 73.1149,151.049 69.1149,155.382 65.5,160C 66.3366,161.011 66.67,162.178 66.5,163.5C 65.396,165.389 64.0627,167.055 62.5,168.5C 61.8501,168.196 61.1835,167.863 60.5,167.5C 59.4809,170.676 57.4809,173.009 54.5,174.5C 53.9753,179.581 52.6419,184.248 50.5,188.5C 50.3404,190.153 49.6737,191.486 48.5,192.5C 47.0687,193.78 46.4021,195.447 46.5,197.5C 46.7373,198.791 46.404,199.791 45.5,200.5C 44.0687,201.78 43.4021,203.447 43.5,205.5C 40.3366,210.928 38.67,216.928 38.5,223.5C 38.634,225.292 38.3007,226.958 37.5,228.5C 36.0749,231.903 35.2415,235.57 35,239.5C 34.2726,252.193 34.6059,264.86 36,277.5C 36.2321,278.737 36.7321,279.737 37.5,280.5C 38.1495,282.435 38.4828,284.435 38.5,286.5C 38.8526,290.913 39.6859,295.246 41,299.5C 41.2004,301.32 42.0337,302.653 43.5,303.5C 43.5,303.833 43.5,304.167 43.5,304.5C 43.1201,306.698 43.7868,308.365 45.5,309.5C 47.676,314.008 49.676,318.675 51.5,323.5C 51.427,325.027 52.0937,326.027 53.5,326.5C 55.0075,328.181 56.0075,330.181 56.5,332.5C 56.427,334.027 57.0937,335.027 58.5,335.5C 59.3382,335.842 59.6716,336.508 59.5,337.5C 59.7376,339.404 60.7376,340.738 62.5,341.5C 62.427,343.027 63.0937,344.027 64.5,344.5C 64.7376,346.404 65.7376,347.738 67.5,348.5C 68.4194,351.089 70.086,353.089 72.5,354.5C 73.5,354.833 74.1667,355.5 74.5,356.5C 75.1667,359.167 76.8333,360.833 79.5,361.5C 81.8333,363.167 83.8333,365.167 85.5,367.5C 86.2623,369.262 87.5956,370.262 89.5,370.5C 90.5,370.833 91.1667,371.5 91.5,372.5C 91.9731,373.906 92.9731,374.573 94.5,374.5C 95.8333,375.833 95.8333,377.167 94.5,378.5C 93.0687,379.78 92.4021,381.447 92.5,383.5C 92.5979,385.553 91.9313,387.22 90.5,388.5C 87.7812,391.952 86.1145,395.952 85.5,400.5C 85.3404,402.153 84.6737,403.486 83.5,404.5C 80.6289,404.878 77.6289,404.544 74.5,403.5C 73.4154,401.413 71.7488,400.08 69.5,399.5C 68.7377,397.738 67.4044,396.738 65.5,396.5C 64.5,396.167 63.8333,395.5 63.5,394.5C 61.1002,391.097 58.1002,388.43 54.5,386.5C 54.0269,385.094 53.0269,384.427 51.5,384.5C 49.1667,381.833 46.8333,379.167 44.5,376.5C 44.5,374.5 43.5,373.5 41.5,373.5C 39.5879,371.343 37.9213,369.009 36.5,366.5C 36.4456,364.368 35.4456,363.035 33.5,362.5C 33.573,360.973 32.9063,359.973 31.5,359.5C 31.4456,357.368 30.4456,356.035 28.5,355.5C 25.677,351.864 23.3437,347.864 21.5,343.5C 21.913,340.68 20.913,338.68 18.5,337.5C 17.874,333.27 16.2073,329.603 13.5,326.5C 13.2671,323.458 12.2671,320.792 10.5,318.5C 9.59603,317.791 9.26269,316.791 9.5,315.5C 8.06964,309.704 6.73631,303.871 5.5,298C 5.31577,296.624 4.64911,295.791 3.5,295.5C 0.878147,275.262 -0.121853,254.928 0.5,234.5C 0.5,234.167 0.5,233.833 0.5,233.5C 2.10419,229.1 2.77086,224.434 2.5,219.5C 2.5,219.167 2.5,218.833 2.5,218.5C 3.92381,216.485 4.59047,214.152 4.5,211.5C 4.56513,208.572 5.2318,205.905 6.5,203.5C 7.92381,201.485 8.59047,199.152 8.5,196.5C 8.97065,194.421 9.63732,192.421 10.5,190.5C 12.8337,188.824 13.8337,186.491 13.5,183.5C 15.2132,182.365 15.8799,180.698 15.5,178.5C 18.375,176.751 19.7083,174.085 19.5,170.5C 21.4077,169.514 22.4077,167.848 22.5,165.5C 22.6596,163.847 23.3263,162.514 24.5,161.5C 25.9063,161.027 26.573,160.027 26.5,158.5C 27.9063,158.027 28.573,157.027 28.5,155.5C 30.4077,154.514 31.4077,152.848 31.5,150.5C 33.2624,149.738 34.2624,148.404 34.5,146.5C 36.5869,145.415 37.9202,143.749 38.5,141.5C 40.5869,140.415 41.9202,138.749 42.5,136.5C 46.2343,133.769 49.2343,130.436 51.5,126.5C 52.8333,125.833 53.8333,124.833 54.5,123.5C 58.1002,121.57 61.1002,118.903 63.5,115.5C 66.0892,114.581 68.0892,112.914 69.5,110.5C 71.7488,109.92 73.4154,108.587 74.5,106.5C 76.0269,106.573 77.0269,105.906 77.5,104.5C 79.0269,104.573 80.0269,103.906 80.5,102.5C 82.822,100.336 85.4887,98.6693 88.5,97.5C 90.0269,97.573 91.0269,96.9063 91.5,95.5C 93.1815,93.9925 95.1815,92.9925 97.5,92.5C 99.0269,92.573 100.027,91.9063 100.5,90.5C 104.182,90.2891 107.182,88.9558 109.5,86.5C 111.698,86.8799 113.365,86.2132 114.5,84.5C 118.708,84.323 122.374,82.9897 125.5,80.5C 129.534,80.4835 133.201,79.4835 136.5,77.5C 142.558,75.4205 148.891,74.0872 155.5,73.5 Z"/></g>
<g><path style="opacity:0.631" fill="#8caad0" d="M 263.5,71.5 C 262.733,75.1488 261.4,78.4822 259.5,81.5C 259.882,77.6684 261.215,74.335 263.5,71.5 Z"/></g>
<g><path style="opacity:0.78" fill="#f3928e" d="M 136.5,77.5 C 133.201,79.4835 129.534,80.4835 125.5,80.5C 128.854,78.7424 132.521,77.7424 136.5,77.5 Z"/></g>
<g><path style="opacity:0.839" fill="#f5a5a0" d="M 350.5,80.5 C 349.041,80.4326 347.708,80.7659 346.5,81.5C 347.244,78.1155 348.577,77.7822 350.5,80.5 Z"/></g>
<g><path style="opacity:0.953" fill="#ef7973" d="M 125.5,80.5 C 122.374,82.9897 118.708,84.323 114.5,84.5C 117.939,82.7957 121.605,81.4624 125.5,80.5 Z"/></g>
<g><path style="opacity:1" fill="#f48e86" d="M 114.5,84.5 C 113.365,86.2132 111.698,86.8799 109.5,86.5C 110.78,85.0687 112.447,84.4021 114.5,84.5 Z"/></g>
<g><path style="opacity:0.643" fill="#f7a09a" d="M 356.5,84.5 C 358.23,85.0256 359.564,86.0256 360.5,87.5C 358.368,87.4456 357.035,86.4456 356.5,84.5 Z"/></g>
<g><path style="opacity:1" fill="#f2877f" d="M 109.5,86.5 C 107.182,88.9558 104.182,90.2891 100.5,90.5C 103.256,88.7962 106.256,87.4629 109.5,86.5 Z"/></g>
<g><path style="opacity:1" fill="#f27e75" d="M 346.5,82.5 C 346.834,85.491 345.834,87.8243 343.5,89.5C 343.707,86.7594 344.707,84.4261 346.5,82.5 Z"/></g>
<g><path style="opacity:0.047" fill="#f9bebd" d="M 362.5,89.5 C 364.027,89.427 365.027,90.0937 365.5,91.5C 363.973,91.573 362.973,90.9063 362.5,89.5 Z"/></g>
<g><path style="opacity:1" fill="#e1211e" d="M 350.5,80.5 C 352.795,81.4746 354.795,82.8079 356.5,84.5C 357.035,86.4456 358.368,87.4456 360.5,87.5C 361.5,87.8333 362.167,88.5 362.5,89.5C 362.973,90.9063 363.973,91.573 365.5,91.5C 367.167,92.5 368.5,93.8333 369.5,95.5C 370.585,97.5869 372.251,98.9202 374.5,99.5C 377.101,103.771 380.434,107.437 384.5,110.5C 386.914,111.911 388.581,113.911 389.5,116.5C 390.08,118.749 391.413,120.415 393.5,121.5C 393.738,123.404 394.738,124.738 396.5,125.5C 396.738,127.404 397.738,128.738 399.5,129.5C 399.427,131.027 400.094,132.027 401.5,132.5C 401.241,134.989 402.241,136.656 404.5,137.5C 405.338,137.842 405.672,138.508 405.5,139.5C 405.427,141.027 406.094,142.027 407.5,142.5C 408.338,142.842 408.672,143.508 408.5,144.5C 408.66,146.153 409.326,147.486 410.5,148.5C 412.341,150.849 413.674,153.515 414.5,156.5C 415.105,161.032 416.772,165.032 419.5,168.5C 420.057,173.165 421.39,177.498 423.5,181.5C 424.768,183.905 425.435,186.572 425.5,189.5C 425.565,192.428 426.232,195.095 427.5,197.5C 429.312,214.788 429.812,232.121 429,249.5C 427.806,259.652 426.306,269.652 424.5,279.5C 422.565,283.895 421.231,288.562 420.5,293.5C 420.672,294.492 420.338,295.158 419.5,295.5C 417.733,297.792 416.733,300.458 416.5,303.5C 416.598,305.553 415.931,307.22 414.5,308.5C 412.896,309.287 412.229,310.62 412.5,312.5C 412.672,313.492 412.338,314.158 411.5,314.5C 409.992,316.181 408.992,318.181 408.5,320.5C 408.672,321.492 408.338,322.158 407.5,322.5C 404.448,323.777 403.115,326.11 403.5,329.5C 402.525,331.795 401.192,333.795 399.5,335.5C 398.094,335.973 397.427,336.973 397.5,338.5C 396.876,340.754 395.543,342.421 393.5,343.5C 392.094,343.973 391.427,344.973 391.5,346.5C 391.167,347.5 390.5,348.167 389.5,348.5C 388.094,348.973 387.427,349.973 387.5,351.5C 386.5,353.167 385.167,354.5 383.5,355.5C 382.094,355.973 381.427,356.973 381.5,358.5C 381.167,359.5 380.5,360.167 379.5,360.5C 376.833,361.167 375.167,362.833 374.5,365.5C 374.5,366.167 374.167,366.5 373.5,366.5C 371.973,366.427 370.973,367.094 370.5,368.5C 370.5,369.167 370.167,369.5 369.5,369.5C 368.167,369.5 366.833,369.5 365.5,369.5C 365.5,370.833 365.5,372.167 365.5,373.5C 365.158,374.338 364.492,374.672 363.5,374.5C 362.577,373.697 361.577,373.53 360.5,374C 360.833,374.333 361.167,374.667 361.5,375C 360.5,375.333 359.5,375.667 358.5,376C 359.598,376.77 359.598,377.603 358.5,378.5C 357.738,380.262 356.404,381.262 354.5,381.5C 352.164,380.538 350.83,381.538 350.5,384.5C 348.973,384.427 347.973,385.094 347.5,386.5C 346.101,387.89 344.434,388.89 342.5,389.5C 339.692,390.929 336.692,391.595 333.5,391.5C 333.5,392.5 333.5,393.5 333.5,394.5C 331.847,394.66 330.514,395.326 329.5,396.5C 329.158,397.338 328.492,397.672 327.5,397.5C 325.62,397.229 324.287,397.896 323.5,399.5C 323.158,400.338 322.492,400.672 321.5,400.5C 318.458,400.733 315.792,401.733 313.5,403.5C 311.898,405.074 309.898,405.741 307.5,405.5C 304.224,405.144 301.557,406.144 299.5,408.5C 296.171,408.215 293.171,408.882 290.5,410.5C 280.682,412.467 270.682,413.8 260.5,414.5C 242.659,414.83 224.992,414.497 207.5,413.5C 211.322,403.199 215.655,393.199 220.5,383.5C 233.171,383.667 245.838,383.5 258.5,383C 264.449,382.516 270.116,381.349 275.5,379.5C 275.833,379.5 276.167,379.5 276.5,379.5C 281.659,379.554 286.325,378.221 290.5,375.5C 294.708,375.323 298.374,373.99 301.5,371.5C 303.553,371.598 305.22,370.931 306.5,369.5C 312.001,366.249 317.667,363.249 323.5,360.5C 325.027,360.573 326.027,359.906 326.5,358.5C 328.027,358.573 329.027,357.906 329.5,356.5C 331.027,356.573 332.027,355.906 332.5,354.5C 334.404,354.262 335.738,353.262 336.5,351.5C 338.404,351.262 339.738,350.262 340.5,348.5C 347.833,343.167 354.167,336.833 359.5,329.5C 361.587,328.415 362.92,326.749 363.5,324.5C 364.906,324.027 365.573,323.027 365.5,321.5C 367.262,320.738 368.262,319.404 368.5,317.5C 369.906,317.027 370.573,316.027 370.5,314.5C 371.906,314.027 372.573,313.027 372.5,311.5C 373.906,311.027 374.573,310.027 374.5,308.5C 375.326,305.515 376.659,302.849 378.5,300.5C 379.75,300.423 380.583,299.756 381,298.5C 382.43,295.647 383.263,292.647 383.5,289.5C 385.834,287.824 386.834,285.491 386.5,282.5C 387.924,280.485 388.59,278.152 388.5,275.5C 390.258,272.146 391.258,268.479 391.5,264.5C 391.325,262.379 391.659,260.379 392.5,258.5C 393.268,257.737 393.768,256.737 394,255.5C 396,240.167 396,224.833 394,209.5C 393.844,206.809 393.011,204.476 391.5,202.5C 391.5,201.833 391.5,201.167 391.5,200.5C 390.187,188.889 386.52,178.223 380.5,168.5C 377.582,163.667 374.916,158.667 372.5,153.5C 372.13,150.733 370.796,148.733 368.5,147.5C 367.026,146.564 366.026,145.23 365.5,143.5C 365.573,141.973 364.906,140.973 363.5,140.5C 362.5,140.167 361.833,139.5 361.5,138.5C 361.249,136.83 360.582,135.33 359.5,134C 359.833,133.667 360.167,133.333 360.5,133C 359.437,131.812 358.103,131.312 356.5,131.5C 352.108,126.106 347.108,121.439 341.5,117.5C 340.415,115.413 338.749,114.08 336.5,113.5C 336.077,112.735 335.743,111.902 335.5,111C 336.956,107.6 337.956,104.1 338.5,100.5C 338.66,98.847 339.326,97.5137 340.5,96.5C 342.834,94.8243 343.834,92.491 343.5,89.5C 345.834,87.8243 346.834,85.491 346.5,82.5C 346.5,82.1667 346.5,81.8333 346.5,81.5C 347.708,80.7659 349.041,80.4326 350.5,80.5 Z"/></g>
<g><path style="opacity:0.737" fill="#f49e9b" d="M 100.5,90.5 C 100.027,91.9063 99.0269,92.573 97.5,92.5C 97.9731,91.0937 98.9731,90.427 100.5,90.5 Z"/></g>
<g><path style="opacity:1" fill="#f08078" d="M 343.5,89.5 C 343.834,92.491 342.834,94.8243 340.5,96.5C 340.935,93.8427 341.935,91.5093 343.5,89.5 Z"/></g>
<g><path style="opacity:0.494" fill="#99b3d5" d="M 256.5,88.5 C 255.733,92.1488 254.4,95.4822 252.5,98.5C 252.882,94.6684 254.215,91.335 256.5,88.5 Z"/></g>
<g><path style="opacity:0.035" fill="#f9b8b6" d="M 369.5,95.5 C 371.749,96.0798 373.415,97.4131 374.5,99.5C 372.251,98.9202 370.585,97.5869 369.5,95.5 Z"/></g>
<g><path style="opacity:0.749" fill="#f49693" d="M 91.5,95.5 C 91.0269,96.9063 90.0269,97.573 88.5,97.5C 88.9731,96.0937 89.9731,95.427 91.5,95.5 Z"/></g>
<g><path style="opacity:0.737" fill="#8ca9ce" d="M 252.5,98.5 C 252.34,100.153 251.674,101.486 250.5,102.5C 250.229,100.62 250.896,99.287 252.5,98.5 Z"/></g>
<g><path style="opacity:0.792" fill="#f6a19c" d="M 374.5,99.5 C 378.566,102.563 381.899,106.229 384.5,110.5C 380.434,107.437 377.101,103.771 374.5,99.5 Z"/></g>
<g><path style="opacity:0.839" fill="#f28e88" d="M 80.5,102.5 C 80.0269,103.906 79.0269,104.573 77.5,104.5C 77.9731,103.094 78.9731,102.427 80.5,102.5 Z"/></g>
<g><path style="opacity:0.749" fill="#f29590" d="M 77.5,104.5 C 77.0269,105.906 76.0269,106.573 74.5,106.5C 74.9731,105.094 75.9731,104.427 77.5,104.5 Z"/></g>
<g><path style="opacity:0.243" fill="#f4a9a6" d="M 209.5,103.5 C 209.5,103.833 209.5,104.167 209.5,104.5C 209.167,104.5 208.833,104.5 208.5,104.5C 189.051,104.34 169.718,105.674 150.5,108.5C 155.499,106.398 160.832,105.231 166.5,105C 180.816,103.981 195.15,103.481 209.5,103.5 Z"/></g>
<g><path style="opacity:1" fill="#6186bb" d="M 208.5,104.5 C 208.833,104.5 209.167,104.5 209.5,104.5C 209.834,107.491 208.834,109.824 206.5,111.5C 207.167,109.167 207.833,106.833 208.5,104.5 Z"/></g>
<g><path style="opacity:0.298" fill="#a6beda" d="M 250.5,102.5 C 250.128,106.297 248.794,109.63 246.5,112.5C 247.263,108.863 248.597,105.53 250.5,102.5 Z"/></g>
<g><path style="opacity:0.953" fill="#f1847e" d="M 74.5,106.5 C 73.4154,108.587 71.7488,109.92 69.5,110.5C 70.5846,108.413 72.2512,107.08 74.5,106.5 Z"/></g>
<g><path style="opacity:0.596" fill="#f49792" d="M 338.5,100.5 C 337.956,104.1 336.956,107.6 335.5,111C 335.743,111.902 336.077,112.735 336.5,113.5C 335.078,113.25 334.078,112.417 333.5,111C 335.088,107.372 336.754,103.872 338.5,100.5 Z"/></g>
<g><path style="opacity:0.114" fill="#f7b8b6" d="M 146.5,109.5 C 143.098,111.278 139.431,112.611 135.5,113.5C 138.626,111.01 142.292,109.677 146.5,109.5 Z"/></g>
<g><path style="opacity:1" fill="#ef7169" d="M 69.5,110.5 C 68.0892,112.914 66.0892,114.581 63.5,115.5C 64.9108,113.086 66.9108,111.419 69.5,110.5 Z"/></g>
<g><path style="opacity:0.231" fill="#f8c0be" d="M 129.5,115.5 C 128.22,116.931 126.553,117.598 124.5,117.5C 125.78,116.069 127.447,115.402 129.5,115.5 Z"/></g>
<g><path style="opacity:1" fill="#6686bd" d="M 206.5,111.5 C 206.834,114.491 205.834,116.824 203.5,118.5C 203.707,115.759 204.707,113.426 206.5,111.5 Z"/></g>
<g><path style="opacity:0.424" fill="#f6a29e" d="M 336.5,113.5 C 338.749,114.08 340.415,115.413 341.5,117.5C 339.251,116.92 337.585,115.587 336.5,113.5 Z"/></g>
<g><path style="opacity:0.447" fill="#f5aba8" d="M 124.5,117.5 C 122.819,119.008 120.819,120.008 118.5,120.5C 119.911,118.461 121.911,117.461 124.5,117.5 Z"/></g>
<g><path style="opacity:0.62" fill="#88a7cf" d="M 246.5,112.5 C 246.065,115.157 245.065,117.491 243.5,119.5C 243.552,116.654 244.552,114.32 246.5,112.5 Z"/></g>
<g><path style="opacity:0.918" fill="#f7a5a1" d="M 341.5,117.5 C 347.108,121.439 352.108,126.106 356.5,131.5C 356.5,131.833 356.5,132.167 356.5,132.5C 351.167,127.833 346.167,122.833 341.5,117.5 Z"/></g>
<g><path style="opacity:0.918" fill="#f07973" d="M 63.5,115.5 C 61.1002,118.903 58.1002,121.57 54.5,123.5C 56.8998,120.097 59.8998,117.43 63.5,115.5 Z"/></g>
<g><path style="opacity:0.553" fill="#f28d88" d="M 389.5,116.5 C 391.587,117.585 392.92,119.251 393.5,121.5C 391.413,120.415 390.08,118.749 389.5,116.5 Z"/></g>
<g><path style="opacity:1" fill="#688dc0" d="M 203.5,118.5 C 203.834,121.491 202.834,123.824 200.5,125.5C 200.935,122.843 201.935,120.509 203.5,118.5 Z"/></g>
<g><path style="opacity:0.435" fill="#9fb9d9" d="M 243.5,119.5 C 243.598,121.553 242.931,123.22 241.5,124.5C 241.402,122.447 242.069,120.78 243.5,119.5 Z"/></g>
<g><path style="opacity:0.929" fill="#f1857f" d="M 393.5,121.5 C 395.262,122.262 396.262,123.596 396.5,125.5C 394.738,124.738 393.738,123.404 393.5,121.5 Z"/></g>
<g><path style="opacity:0.529" fill="#f5a8a7" d="M 54.5,123.5 C 53.8333,124.833 52.8333,125.833 51.5,126.5C 51.5,124.5 52.5,123.5 54.5,123.5 Z"/></g>
<g><path style="opacity:0.667" fill="#f39893" d="M 396.5,125.5 C 398.262,126.262 399.262,127.596 399.5,129.5C 397.738,128.738 396.738,127.404 396.5,125.5 Z"/></g>
<g><path style="opacity:0.886" fill="#f1817a" d="M 51.5,126.5 C 49.2343,130.436 46.2343,133.769 42.5,136.5C 44.7657,132.564 47.7657,129.231 51.5,126.5 Z"/></g>
<g><path style="opacity:0.471" fill="#f4a8a5" d="M 399.5,129.5 C 400.906,129.973 401.573,130.973 401.5,132.5C 400.094,132.027 399.427,131.027 399.5,129.5 Z"/></g>
<g><path style="opacity:1" fill="#ee6557" d="M 356.5,131.5 C 358.103,131.312 359.437,131.812 360.5,133C 360.167,133.333 359.833,133.667 359.5,134C 360.582,135.33 361.249,136.83 361.5,138.5C 359.844,136.54 358.177,134.54 356.5,132.5C 356.5,132.167 356.5,131.833 356.5,131.5 Z"/></g>
<g><path style="opacity:1" fill="#ee6e62" d="M 401.5,132.5 C 402.89,133.899 403.89,135.566 404.5,137.5C 402.241,136.656 401.241,134.989 401.5,132.5 Z"/></g>
<g><path style="opacity:0.024" fill="#fac2c0" d="M 94.5,135.5 C 94.0269,136.906 93.0269,137.573 91.5,137.5C 91.9731,136.094 92.9731,135.427 94.5,135.5 Z"/></g>
<g><path style="opacity:1" fill="#6e91c2" d="M 200.5,125.5 C 199.926,129.325 198.759,132.991 197,136.5C 196.623,137.942 195.79,138.942 194.5,139.5C 195.935,134.51 197.935,129.844 200.5,125.5 Z"/></g>
<g><path style="opacity:0.286" fill="#a0b9d8" d="M 240.5,127.5 C 237.345,136.466 233.679,145.132 229.5,153.5C 230.698,148.762 232.198,144.095 234,139.5C 235.898,135.258 238.065,131.258 240.5,127.5 Z"/></g>
<g><path style="opacity:0.78" fill="#f28a83" d="M 42.5,136.5 C 41.9202,138.749 40.5869,140.415 38.5,141.5C 39.0798,139.251 40.4131,137.585 42.5,136.5 Z"/></g>
<g><path style="opacity:0.012" fill="#fac9c7" d="M 88.5,140.5 C 88.0269,141.906 87.0269,142.573 85.5,142.5C 85.9731,141.094 86.9731,140.427 88.5,140.5 Z"/></g>
<g><path style="opacity:0.071" fill="#f8b6b4" d="M 363.5,140.5 C 364.906,140.973 365.573,141.973 365.5,143.5C 364.094,143.027 363.427,142.027 363.5,140.5 Z"/></g>
<g><path style="opacity:0.541" fill="#f39a96" d="M 405.5,139.5 C 406.906,139.973 407.573,140.973 407.5,142.5C 406.094,142.027 405.427,141.027 405.5,139.5 Z"/></g>
<g><path style="opacity:0.667" fill="#f4928c" d="M 38.5,141.5 C 37.9202,143.749 36.5869,145.415 34.5,146.5C 35.0798,144.251 36.4131,142.585 38.5,141.5 Z"/></g>
<g><path style="opacity:1" fill="#7594c4" d="M 194.5,139.5 C 194.834,142.491 193.834,144.824 191.5,146.5C 191.707,143.759 192.707,141.426 194.5,139.5 Z"/></g>
<g><path style="opacity:0.243" fill="#f6b3b2" d="M 408.5,144.5 C 410.104,145.287 410.771,146.62 410.5,148.5C 409.326,147.486 408.66,146.153 408.5,144.5 Z"/></g>
<g><path style="opacity:1" fill="#f28880" d="M 368.5,147.5 C 370.796,148.733 372.13,150.733 372.5,153.5C 370.684,151.882 369.351,149.882 368.5,147.5 Z"/></g>
<g><path style="opacity:0.655" fill="#f49b97" d="M 34.5,146.5 C 34.2624,148.404 33.2624,149.738 31.5,150.5C 31.7376,148.596 32.7376,147.262 34.5,146.5 Z"/></g>
<g><path style="opacity:1" fill="#ec5848" d="M 80.5,147.5 C 75.4317,152.563 70.765,157.896 66.5,163.5C 66.67,162.178 66.3366,161.011 65.5,160C 69.1149,155.382 73.1149,151.049 77.5,147C 78.5768,146.53 79.5768,146.697 80.5,147.5 Z"/></g>
<g><path style="opacity:1" fill="#f07366" d="M 31.5,150.5 C 31.4077,152.848 30.4077,154.514 28.5,155.5C 28.7497,153.326 29.7497,151.659 31.5,150.5 Z"/></g>
<g><path style="opacity:0.608" fill="#f28e8b" d="M 28.5,155.5 C 28.573,157.027 27.9063,158.027 26.5,158.5C 26.427,156.973 27.0937,155.973 28.5,155.5 Z"/></g>
<g><path style="opacity:0.596" fill="#90add1" d="M 229.5,153.5 C 228.345,157.797 226.679,161.797 224.5,165.5C 225.115,160.952 226.781,156.952 229.5,153.5 Z"/></g>
<g><path style="opacity:1" fill="#f2857d" d="M 414.5,156.5 C 416.928,160.099 418.594,164.099 419.5,168.5C 416.772,165.032 415.105,161.032 414.5,156.5 Z"/></g>
<g><path style="opacity:0.447" fill="#f5a09d" d="M 26.5,158.5 C 26.573,160.027 25.9063,161.027 24.5,161.5C 24.427,159.973 25.0937,158.973 26.5,158.5 Z"/></g>
<g><path style="opacity:1" fill="#6d91c2" d="M 186.5,158.5 C 186.834,161.491 185.834,163.824 183.5,165.5C 183.935,162.843 184.935,160.509 186.5,158.5 Z"/></g>
<g><path style="opacity:1" fill="#f27d72" d="M 22.5,165.5 C 22.4077,167.848 21.4077,169.514 19.5,170.5C 19.7497,168.326 20.7497,166.659 22.5,165.5 Z"/></g>
<g><path style="opacity:0.286" fill="#b3c8e0" d="M 182.5,167.5 C 182.598,169.553 181.931,171.22 180.5,172.5C 180.402,170.447 181.069,168.78 182.5,167.5 Z"/></g>
<g><path style="opacity:0.875" fill="#f39894" d="M 419.5,168.5 C 421.61,172.502 422.943,176.835 423.5,181.5C 421.39,177.498 420.057,173.165 419.5,168.5 Z"/></g>
<g><path style="opacity:0.737" fill="#8daad0" d="M 224.5,165.5 C 223.352,169.787 221.685,173.787 219.5,177.5C 220.021,172.913 221.688,168.913 224.5,165.5 Z"/></g>
<g><path style="opacity:1" fill="#7295c4" d="M 180.5,172.5 C 180.834,175.491 179.834,177.824 177.5,179.5C 177.935,176.843 178.935,174.509 180.5,172.5 Z"/></g>
<g><path style="opacity:1" fill="#f07269" d="M 19.5,170.5 C 19.7083,174.085 18.375,176.751 15.5,178.5C 16.3257,175.515 17.659,172.849 19.5,170.5 Z"/></g>
<g><path style="opacity:1" fill="#ed5c4d" d="M 62.5,168.5 C 58.4967,175.175 54.4967,181.841 50.5,188.5C 52.6419,184.248 53.9753,179.581 54.5,174.5C 57.4809,173.009 59.4809,170.676 60.5,167.5C 61.1835,167.863 61.8501,168.196 62.5,168.5 Z"/></g>
<g><path style="opacity:1" fill="#f59189" d="M 15.5,178.5 C 15.8799,180.698 15.2132,182.365 13.5,183.5C 13.4021,181.447 14.0687,179.78 15.5,178.5 Z"/></g>
<g><path style="opacity:1" fill="#7795c4" d="M 177.5,179.5 C 177.834,182.491 176.834,184.824 174.5,186.5C 174.707,183.759 175.707,181.426 177.5,179.5 Z"/></g>
<g><path style="opacity:0.769" fill="#88a6cd" d="M 219.5,177.5 C 218.958,180.912 217.625,183.912 215.5,186.5C 216.042,183.088 217.375,180.088 219.5,177.5 Z"/></g>
<g><path style="opacity:1" fill="#f38a86" d="M 13.5,183.5 C 13.8337,186.491 12.8337,188.824 10.5,190.5C 10.9348,187.843 11.9348,185.509 13.5,183.5 Z"/></g>
<g><path style="opacity:0.482" fill="#f5a8a5" d="M 380.5,168.5 C 386.52,178.223 390.187,188.889 391.5,200.5C 388.658,189.642 384.991,178.975 380.5,168.5 Z"/></g>
<g><path style="opacity:0.369" fill="#a0bad8" d="M 215.5,186.5 C 215.267,189.542 214.267,192.208 212.5,194.5C 212.733,191.458 213.733,188.792 215.5,186.5 Z"/></g>
<g><path style="opacity:0.459" fill="#f49e9c" d="M 48.5,192.5 C 48.5979,194.553 47.9313,196.22 46.5,197.5C 46.4021,195.447 47.0687,193.78 48.5,192.5 Z"/></g>
<g><path style="opacity:0.345" fill="#f5b1af" d="M 425.5,189.5 C 427.04,191.838 427.706,194.505 427.5,197.5C 426.232,195.095 425.565,192.428 425.5,189.5 Z"/></g>
<g><path style="opacity:1" fill="#708fc2" d="M 172.5,191.5 C 172.834,194.491 171.834,196.824 169.5,198.5C 169.707,195.759 170.707,193.426 172.5,191.5 Z"/></g>
<g><path style="opacity:0.69" fill="#f4a4a1" d="M 8.5,196.5 C 8.59047,199.152 7.92381,201.485 6.5,203.5C 6.40953,200.848 7.07619,198.515 8.5,196.5 Z"/></g>
<g><path style="opacity:0.553" fill="#95b1d3" d="M 211.5,196.5 C 210.737,200.137 209.403,203.47 207.5,206.5C 207.872,202.703 209.206,199.37 211.5,196.5 Z"/></g>
<g><path style="opacity:1" fill="#7194c3" d="M 169.5,198.5 C 169.834,201.491 168.834,203.824 166.5,205.5C 166.935,202.843 167.935,200.509 169.5,198.5 Z"/></g>
<g><path style="opacity:0.357" fill="#f7b9b7" d="M 45.5,200.5 C 45.5979,202.553 44.9313,204.22 43.5,205.5C 43.4021,203.447 44.0687,201.78 45.5,200.5 Z"/></g>
<g><path style="opacity:0.78" fill="#f49c97" d="M 43.5,205.5 C 42.1227,211.687 40.4561,217.687 38.5,223.5C 38.67,216.928 40.3366,210.928 43.5,205.5 Z"/></g>
<g><path style="opacity:1" fill="#7694c4" d="M 166.5,205.5 C 166.834,208.491 165.834,210.824 163.5,212.5C 163.707,209.759 164.707,207.426 166.5,205.5 Z"/></g>
<g><path style="opacity:0.469" fill="#9cd8b4" d="M 245.5,214.5 C 240.04,213.171 234.207,212.504 228,212.5C 221.756,212.52 215.589,212.853 209.5,213.5C 221.455,211.52 233.788,210.854 246.5,211.5C 246.737,212.791 246.404,213.791 245.5,214.5 Z"/></g>
<g><path style="opacity:0.47" fill="#99b4d6" d="M 292.5,213.5 C 279.01,212.504 265.344,212.171 251.5,212.5C 251.771,214.38 251.104,215.713 249.5,216.5C 249.421,215.07 249.754,213.736 250.5,212.5C 264.833,211.167 279.167,211.167 293.5,212.5C 293.376,213.107 293.043,213.44 292.5,213.5 Z"/></g>
<g><path style="opacity:1" fill="#04489a" d="M 292.5,213.5 C 290.552,215.32 289.552,217.654 289.5,220.5C 288.069,221.78 287.402,223.447 287.5,225.5C 287.443,226.609 287.11,227.609 286.5,228.5C 285.503,228.47 284.836,228.97 284.5,230C 283.338,233.147 282.338,236.314 281.5,239.5C 279.787,240.635 279.12,242.302 279.5,244.5C 277.552,246.32 276.552,248.654 276.5,251.5C 276.672,252.492 276.338,253.158 275.5,253.5C 272.781,256.952 271.115,260.952 270.5,265.5C 270.672,266.492 270.338,267.158 269.5,267.5C 267.078,271.076 265.411,275.076 264.5,279.5C 261.781,282.952 260.115,286.952 259.5,291.5C 258.326,292.514 257.66,293.847 257.5,295.5C 255.926,297.102 255.259,299.102 255.5,301.5C 253.919,303.674 252.419,306.007 251,308.5C 248.146,316.198 245.313,323.865 242.5,331.5C 241.326,332.514 240.66,333.847 240.5,335.5C 240.5,335.833 240.5,336.167 240.5,336.5C 235.821,344.549 232.154,353.216 229.5,362.5C 228.503,362.47 227.836,362.97 227.5,364C 225.725,368.044 224.392,372.211 223.5,376.5C 221.461,377.911 220.461,379.911 220.5,382.5C 220.5,382.833 220.5,383.167 220.5,383.5C 215.655,393.199 211.322,403.199 207.5,413.5C 206.596,414.209 206.263,415.209 206.5,416.5C 203.551,420.657 201.551,425.323 200.5,430.5C 200.672,431.492 200.338,432.158 199.5,432.5C 197.078,436.076 195.411,440.076 194.5,444.5C 194.5,444.833 194.5,445.167 194.5,445.5C 193.503,445.47 192.836,445.97 192.5,447C 191.338,450.147 190.338,453.314 189.5,456.5C 189.672,457.492 189.338,458.158 188.5,458.5C 186.206,461.37 184.872,464.703 184.5,468.5C 184.204,470.403 183.537,472.07 182.5,473.5C 181.503,473.47 180.836,473.97 180.5,475C 179.338,478.147 178.338,481.314 177.5,484.5C 164.816,484.832 152.149,484.499 139.5,483.5C 140.309,481.929 140.643,480.262 140.5,478.5C 140.402,476.447 141.069,474.78 142.5,473.5C 145.312,470.087 146.979,466.087 147.5,461.5C 147.893,459.716 148.559,458.05 149.5,456.5C 151.834,454.824 152.834,452.491 152.5,449.5C 155.165,447.165 156.498,444.165 156.5,440.5C 156.5,440.167 156.5,439.833 156.5,439.5C 158.834,437.824 159.834,435.491 159.5,432.5C 160.497,432.53 161.164,432.03 161.5,431C 163.286,426.941 164.619,422.774 165.5,418.5C 167.834,416.824 168.834,414.491 168.5,411.5C 170.897,408.691 172.23,405.358 172.5,401.5C 172.796,399.597 173.463,397.93 174.5,396.5C 176.834,394.824 177.834,392.491 177.5,389.5C 179.834,387.824 180.834,385.491 180.5,382.5C 180.402,380.447 181.069,378.78 182.5,377.5C 185.181,374.808 186.514,371.475 186.5,367.5C 188.834,365.824 189.834,363.491 189.5,360.5C 189.796,358.597 190.463,356.93 191.5,355.5C 193.834,353.824 194.834,351.491 194.5,348.5C 195.79,347.942 196.623,346.942 197,345.5C 198.43,342.647 199.263,339.647 199.5,336.5C 199.893,334.716 200.559,333.05 201.5,331.5C 203.834,329.824 204.834,327.491 204.5,324.5C 204.402,322.447 205.069,320.78 206.5,319.5C 207.79,318.942 208.623,317.942 209,316.5C 210.759,312.991 211.926,309.325 212.5,305.5C 214.785,302.665 216.118,299.332 216.5,295.5C 216.893,293.716 217.559,292.05 218.5,290.5C 220.834,288.824 221.834,286.491 221.5,283.5C 223.213,282.365 223.88,280.698 223.5,278.5C 224.79,277.942 225.623,276.942 226,275.5C 227.43,272.647 228.263,269.647 228.5,266.5C 228.893,264.716 229.559,263.05 230.5,261.5C 232.448,259.68 233.448,257.346 233.5,254.5C 233.328,253.508 233.662,252.842 234.5,252.5C 237.181,249.808 238.514,246.475 238.5,242.5C 242.175,237.498 244.508,231.831 245.5,225.5C 245.328,224.508 245.662,223.842 246.5,223.5C 248.834,221.824 249.834,219.491 249.5,216.5C 251.104,215.713 251.771,214.38 251.5,212.5C 265.344,212.171 279.01,212.504 292.5,213.5 Z"/></g>
<g><path style="opacity:0.737" fill="#8eabd0" d="M 207.5,206.5 C 206.958,209.912 205.625,212.912 203.5,215.5C 204.042,212.088 205.375,209.088 207.5,206.5 Z"/></g>
<g><path style="opacity:1" fill="#0f9c41" d="M 245.5,214.5 C 243.707,216.426 242.707,218.759 242.5,221.5C 241.07,225.354 239.403,229.021 237.5,232.5C 236.533,233.806 235.199,234.473 233.5,234.5C 233.492,237.545 233.159,240.545 232.5,243.5C 230.707,245.426 229.707,247.759 229.5,250.5C 229.008,252.819 228.008,254.819 226.5,256.5C 225.069,257.78 224.402,259.447 224.5,261.5C 223.07,265.354 221.403,269.021 219.5,272.5C 207.735,273.819 196.069,273.819 184.5,272.5C 187.655,263.534 191.321,254.868 195.5,246.5C 197.834,244.824 198.834,242.491 198.5,239.5C 198.5,239.167 198.5,238.833 198.5,238.5C 199.906,238.027 200.573,237.027 200.5,235.5C 201.263,231.863 202.597,228.53 204.5,225.5C 205.837,224.685 206.837,223.518 207.5,222C 208.899,221.405 210.232,221.572 211.5,222.5C 214.109,221.24 213.943,220.24 211,219.5C 210.228,219.645 209.561,219.978 209,220.5C 208.982,218.203 209.149,215.869 209.5,213.5C 215.589,212.853 221.756,212.52 228,212.5C 234.207,212.504 240.04,213.171 245.5,214.5 Z"/></g>
<g><path style="opacity:0.059" fill="#f9c4c2" d="M 4.5,211.5 C 4.59047,214.152 3.92381,216.485 2.5,218.5C 2.40953,215.848 3.07619,213.515 4.5,211.5 Z"/></g>
<g><path style="opacity:0.435" fill="#9fd9b4" d="M 245.5,214.5 C 245.293,217.241 244.293,219.574 242.5,221.5C 242.707,218.759 243.707,216.426 245.5,214.5 Z"/></g>
<g><path style="opacity:0.596" fill="#89a8cf" d="M 292.5,213.5 C 292.065,216.157 291.065,218.491 289.5,220.5C 289.552,217.654 290.552,215.32 292.5,213.5 Z"/></g>
<g><path style="opacity:1" fill="#4eb168" d="M 209.5,213.5 C 209.149,215.869 208.982,218.203 209,220.5C 209.561,219.978 210.228,219.645 211,219.5C 213.943,220.24 214.109,221.24 211.5,222.5C 210.232,221.572 208.899,221.405 207.5,222C 206.837,223.518 205.837,224.685 204.5,225.5C 205.648,221.213 207.315,217.213 209.5,213.5 Z"/></g>
<g><path style="opacity:1" fill="#6d90c2" d="M 249.5,216.5 C 249.834,219.491 248.834,221.824 246.5,223.5C 246.935,220.843 247.935,218.509 249.5,216.5 Z"/></g>
<g><path style="opacity:1" fill="#6d8ec1" d="M 163.5,212.5 C 163.263,215.647 162.43,218.647 161,221.5C 160.623,222.942 159.79,223.942 158.5,224.5C 159.648,220.213 161.315,216.213 163.5,212.5 Z"/></g>
<g><path style="opacity:0.424" fill="#a4bcd9" d="M 289.5,220.5 C 289.598,222.553 288.931,224.22 287.5,225.5C 287.402,223.447 288.069,221.78 289.5,220.5 Z"/></g>
<g><path style="opacity:0.55" fill="#f18f8c" d="M 391.5,202.5 C 393.011,204.476 393.844,206.809 394,209.5C 396,224.833 396,240.167 394,255.5C 393.768,256.737 393.268,257.737 392.5,258.5C 395.348,239.77 395.015,221.103 391.5,202.5 Z"/></g>
<g><path style="opacity:0.769" fill="#8facd1" d="M 203.5,215.5 C 201.352,222.449 198.686,229.116 195.5,235.5C 197.094,228.325 199.761,221.659 203.5,215.5 Z"/></g>
<g><path style="opacity:1" fill="#7090c2" d="M 158.5,224.5 C 157.702,230.578 155.369,235.912 151.5,240.5C 153.322,234.864 155.655,229.531 158.5,224.5 Z"/></g>
<g><path style="opacity:0.553" fill="#f39d9a" d="M 2.5,219.5 C 2.77086,224.434 2.10419,229.1 0.5,233.5C 0.361822,228.586 1.02849,223.919 2.5,219.5 Z"/></g>
<g><path style="opacity:1" fill="#76c38a" d="M 237.5,232.5 C 236.624,236.582 234.957,240.249 232.5,243.5C 233.159,240.545 233.492,237.545 233.5,234.5C 235.199,234.473 236.533,233.806 237.5,232.5 Z"/></g>
<g><path style="opacity:0.369" fill="#9bb5d6" d="M 286.5,228.5 C 285.398,232.492 283.732,236.159 281.5,239.5C 282.338,236.314 283.338,233.147 284.5,230C 284.836,228.97 285.503,228.47 286.5,228.5 Z"/></g>
<g><path style="opacity:0.184" fill="#bce5cb" d="M 200.5,235.5 C 200.573,237.027 199.906,238.027 198.5,238.5C 198.427,236.973 199.094,235.973 200.5,235.5 Z"/></g>
<g><path style="opacity:1" fill="#7f9dc8" d="M 245.5,225.5 C 244.508,231.831 242.175,237.498 238.5,242.5C 240.591,236.662 242.924,230.995 245.5,225.5 Z"/></g>
<g><path style="opacity:0.875" fill="#84a2cd" d="M 281.5,239.5 C 281.204,241.403 280.537,243.07 279.5,244.5C 279.12,242.302 279.787,240.635 281.5,239.5 Z"/></g>
<g><path style="opacity:0.667" fill="#83a3cc" d="M 194.5,237.5 C 194.065,240.157 193.065,242.491 191.5,244.5C 191.552,241.654 192.552,239.32 194.5,237.5 Z"/></g>
<g><path style="opacity:1" fill="#7dca97" d="M 198.5,239.5 C 198.834,242.491 197.834,244.824 195.5,246.5C 195.935,243.843 196.935,241.509 198.5,239.5 Z"/></g>
<g><path style="opacity:0.333" fill="#f49b96" d="M 427.5,197.5 C 428.581,202.486 429.581,207.486 430.5,212.5C 430.5,225.833 430.5,239.167 430.5,252.5C 429.424,261.695 427.424,270.695 424.5,279.5C 426.306,269.652 427.806,259.652 429,249.5C 429.812,232.121 429.312,214.788 427.5,197.5 Z"/></g>
<g><path style="opacity:0.333" fill="#abdebf" d="M 232.5,243.5 C 232.293,246.241 231.293,248.574 229.5,250.5C 229.707,247.759 230.707,245.426 232.5,243.5 Z"/></g>
<g><path style="opacity:1" fill="#829fc9" d="M 149.5,245.5 C 149.818,248.481 148.818,250.815 146.5,252.5C 147.088,249.937 148.088,247.604 149.5,245.5 Z"/></g>
<g><path style="opacity:0.392" fill="#a0b9d9" d="M 279.5,244.5 C 279.065,247.157 278.065,249.491 276.5,251.5C 276.552,248.654 277.552,246.32 279.5,244.5 Z"/></g>
<g><path style="opacity:0.403" fill="#f39d9b" d="M 37.5,228.5 C 34.9315,246.053 34.9315,263.386 37.5,280.5C 36.7321,279.737 36.2321,278.737 36,277.5C 34.6059,264.86 34.2726,252.193 35,239.5C 35.2415,235.57 36.0749,231.903 37.5,228.5 Z"/></g>
<g><path style="opacity:0.263" fill="#a7bfdb" d="M 191.5,244.5 C 191.448,247.346 190.448,249.68 188.5,251.5C 188.935,248.843 189.935,246.509 191.5,244.5 Z"/></g>
<g><path style="opacity:1" fill="#678cc0" d="M 238.5,242.5 C 238.514,246.475 237.181,249.808 234.5,252.5C 235.321,248.873 236.654,245.54 238.5,242.5 Z"/></g>
<g><path style="opacity:0.631" fill="#94b1d2" d="M 146.5,252.5 C 146.448,255.346 145.448,257.68 143.5,259.5C 143.935,256.843 144.935,254.509 146.5,252.5 Z"/></g>
<g><path style="opacity:0.655" fill="#88a6ce" d="M 275.5,253.5 C 274.345,257.797 272.679,261.797 270.5,265.5C 271.115,260.952 272.781,256.952 275.5,253.5 Z"/></g>
<g><path style="opacity:0.392" fill="#a0d9b6" d="M 226.5,256.5 C 226.598,258.553 225.931,260.22 224.5,261.5C 224.402,259.447 225.069,257.78 226.5,256.5 Z"/></g>
<g><path style="opacity:0.471" fill="#a1b9d8" d="M 233.5,254.5 C 233.448,257.346 232.448,259.68 230.5,261.5C 230.935,258.843 231.935,256.509 233.5,254.5 Z"/></g>
<g><path style="opacity:0.298" fill="#9cb6d6" d="M 188.5,251.5 C 187.266,256.883 185.266,261.883 182.5,266.5C 183.889,261.832 185.389,257.165 187,252.5C 187.383,251.944 187.883,251.611 188.5,251.5 Z"/></g>
<g><path style="opacity:0.737" fill="#f5a7a4" d="M 391.5,264.5 C 391.258,268.479 390.258,272.146 388.5,275.5C 388.742,271.521 389.742,267.854 391.5,264.5 Z"/></g>
<g><path style="opacity:0.576" fill="#8daad1" d="M 182.5,266.5 C 182.065,269.157 181.065,271.491 179.5,273.5C 179.552,270.654 180.552,268.32 182.5,266.5 Z"/></g>
<g><path style="opacity:0.576" fill="#86a6cd" d="M 141.5,264.5 C 141.497,267.675 140.497,270.508 138.5,273C 152.163,273.5 165.829,273.667 179.5,273.5C 165.677,274.496 151.677,274.829 137.5,274.5C 137.872,270.703 139.206,267.37 141.5,264.5 Z"/></g>
<g><path style="opacity:0.576" fill="#8dd3a9" d="M 184.5,272.5 C 196.069,273.819 207.735,273.819 219.5,272.5C 213.872,273.829 207.872,274.496 201.5,274.5C 195.5,274.167 189.5,273.833 183.5,273.5C 183.624,272.893 183.957,272.56 184.5,272.5 Z"/></g>
<g><path style="opacity:0.404" fill="#97b1d4" d="M 269.5,267.5 C 268.597,271.889 266.931,275.889 264.5,279.5C 265.411,275.076 267.078,271.076 269.5,267.5 Z"/></g>
<g><path style="opacity:1" fill="#7c9cc8" d="M 228.5,266.5 C 228.263,269.647 227.43,272.647 226,275.5C 225.623,276.942 224.79,277.942 223.5,278.5C 224.655,274.203 226.321,270.203 228.5,266.5 Z"/></g>
<g><path style="opacity:0.518" fill="#f39c99" d="M -0.5,234.5 C -0.166667,234.5 0.166667,234.5 0.5,234.5C -0.121853,254.928 0.878147,275.262 3.5,295.5C 1.73514,288.909 0.401807,282.242 -0.5,275.5C -0.5,261.833 -0.5,248.167 -0.5,234.5 Z"/></g>
<g><path style="opacity:0.757" fill="#f3928e" d="M 388.5,275.5 C 388.59,278.152 387.924,280.485 386.5,282.5C 386.41,279.848 387.076,277.515 388.5,275.5 Z"/></g>
<g><path style="opacity:1" fill="#89a3cc" d="M 223.5,278.5 C 223.88,280.698 223.213,282.365 221.5,283.5C 221.402,281.447 222.069,279.78 223.5,278.5 Z"/></g>
<g><path style="opacity:0.161" fill="#f5a5a3" d="M 424.5,279.5 C 424.08,284.529 422.746,289.195 420.5,293.5C 421.231,288.562 422.565,283.895 424.5,279.5 Z"/></g>
<g><path style="opacity:0.655" fill="#8ba8ce" d="M 264.5,279.5 C 263.345,283.797 261.679,287.797 259.5,291.5C 260.115,286.952 261.781,282.952 264.5,279.5 Z"/></g>
<g><path style="opacity:1" fill="#7d9ec9" d="M 221.5,283.5 C 221.834,286.491 220.834,288.824 218.5,290.5C 218.935,287.843 219.935,285.509 221.5,283.5 Z"/></g>
<g><path style="opacity:1" fill="#f27d73" d="M 386.5,282.5 C 386.834,285.491 385.834,287.824 383.5,289.5C 383.707,286.759 384.707,284.426 386.5,282.5 Z"/></g>
<g><path style="opacity:0.769" fill="#f49f9b" d="M 38.5,286.5 C 40.3014,292.022 41.9681,297.689 43.5,303.5C 42.0337,302.653 41.2004,301.32 41,299.5C 39.6859,295.246 38.8526,290.913 38.5,286.5 Z"/></g>
<g><path style="opacity:0.357" fill="#a6bdda" d="M 259.5,291.5 C 259.771,293.38 259.104,294.713 257.5,295.5C 257.66,293.847 258.326,292.514 259.5,291.5 Z"/></g>
<g><path style="opacity:0.702" fill="#8aa8cf" d="M 257.5,295.5 C 257.405,297.786 256.738,299.786 255.5,301.5C 255.259,299.102 255.926,297.102 257.5,295.5 Z"/></g>
<g><path style="opacity:1" fill="#ef7268" d="M 383.5,289.5 C 383.263,292.647 382.43,295.647 381,298.5C 380.583,299.756 379.75,300.423 378.5,300.5C 379.93,296.646 381.597,292.979 383.5,289.5 Z"/></g>
<g><path style="opacity:0.584" fill="#8ba9cf" d="M 216.5,295.5 C 216.118,299.332 214.785,302.665 212.5,305.5C 213.267,301.851 214.6,298.518 216.5,295.5 Z"/></g>
<g><path style="opacity:0.541" fill="#f2938e" d="M 419.5,295.5 C 419.267,298.542 418.267,301.208 416.5,303.5C 416.733,300.458 417.733,297.792 419.5,295.5 Z"/></g>
<g><path style="opacity:0.596" fill="#f28f8a" d="M 3.5,295.5 C 4.64911,295.791 5.31577,296.624 5.5,298C 6.73631,303.871 8.06964,309.704 9.5,315.5C 6.59126,309.219 4.59126,302.553 3.5,295.5 Z"/></g>
<g><path style="opacity:1" fill="#f5938b" d="M 43.5,304.5 C 44.9313,305.78 45.5979,307.447 45.5,309.5C 43.7868,308.365 43.1201,306.698 43.5,304.5 Z"/></g>
<g><path style="opacity:0.608" fill="#f28c88" d="M 374.5,308.5 C 374.573,310.027 373.906,311.027 372.5,311.5C 372.427,309.973 373.094,308.973 374.5,308.5 Z"/></g>
<g><path style="opacity:0.631" fill="#f39691" d="M 414.5,308.5 C 414.34,310.153 413.674,311.486 412.5,312.5C 412.229,310.62 412.896,309.287 414.5,308.5 Z"/></g>
<g><path style="opacity:0.482" fill="#f4a09e" d="M 372.5,311.5 C 372.573,313.027 371.906,314.027 370.5,314.5C 370.427,312.973 371.094,311.973 372.5,311.5 Z"/></g>
<g><path style="opacity:0.459" fill="#9ab5d5" d="M 255.5,301.5 C 251.678,311.801 247.345,321.801 242.5,331.5C 245.313,323.865 248.146,316.198 251,308.5C 252.419,306.007 253.919,303.674 255.5,301.5 Z"/></g>
<g><path style="opacity:0.553" fill="#f49e99" d="M 370.5,314.5 C 370.573,316.027 369.906,317.027 368.5,317.5C 368.427,315.973 369.094,314.973 370.5,314.5 Z"/></g>
<g><path style="opacity:1" fill="#7596c4" d="M 212.5,305.5 C 211.926,309.325 210.759,312.991 209,316.5C 208.623,317.942 207.79,318.942 206.5,319.5C 207.935,314.51 209.935,309.844 212.5,305.5 Z"/></g>
<g><path style="opacity:0.243" fill="#f7bdbb" d="M 411.5,314.5 C 411.539,317.089 410.539,319.089 408.5,320.5C 408.992,318.181 409.992,316.181 411.5,314.5 Z"/></g>
<g><path style="opacity:0.541" fill="#f5a7a5" d="M 368.5,317.5 C 368.262,319.404 367.262,320.738 365.5,321.5C 365.738,319.596 366.738,318.262 368.5,317.5 Z"/></g>
<g><path style="opacity:0.702" fill="#f5a09d" d="M 365.5,321.5 C 365.573,323.027 364.906,324.027 363.5,324.5C 363.427,322.973 364.094,321.973 365.5,321.5 Z"/></g>
<g><path style="opacity:0.459" fill="#f49f9c" d="M 10.5,318.5 C 12.2671,320.792 13.2671,323.458 13.5,326.5C 11.7329,324.208 10.7329,321.542 10.5,318.5 Z"/></g>
<g><path style="opacity:0.345" fill="#f5b3b1" d="M 51.5,323.5 C 52.9063,323.973 53.573,324.973 53.5,326.5C 52.0937,326.027 51.427,325.027 51.5,323.5 Z"/></g>
<g><path style="opacity:1" fill="#f37e70" d="M 407.5,322.5 C 406.416,325.004 405.083,327.337 403.5,329.5C 403.115,326.11 404.448,323.777 407.5,322.5 Z"/></g>
<g><path style="opacity:1" fill="#799ac7" d="M 204.5,324.5 C 204.834,327.491 203.834,329.824 201.5,331.5C 201.935,328.843 202.935,326.509 204.5,324.5 Z"/></g>
<g><path style="opacity:0.678" fill="#f49994" d="M 363.5,324.5 C 362.92,326.749 361.587,328.415 359.5,329.5C 360.08,327.251 361.413,325.585 363.5,324.5 Z"/></g>
<g><path style="opacity:0.506" fill="#f59690" d="M 13.5,326.5 C 16.2073,329.603 17.874,333.27 18.5,337.5C 16.0431,334.249 14.3764,330.582 13.5,326.5 Z"/></g>
<g><path style="opacity:0.471" fill="#f5a4a3" d="M 56.5,332.5 C 57.9063,332.973 58.573,333.973 58.5,335.5C 57.0937,335.027 56.427,334.027 56.5,332.5 Z"/></g>
<g><path style="opacity:0.345" fill="#a1bad8" d="M 242.5,331.5 C 242.771,333.38 242.104,334.713 240.5,335.5C 240.66,333.847 241.326,332.514 242.5,331.5 Z"/></g>
<g><path style="opacity:0.012" fill="#fac7c4" d="M 399.5,335.5 C 399.573,337.027 398.906,338.027 397.5,338.5C 397.427,336.973 398.094,335.973 399.5,335.5 Z"/></g>
<g><path style="opacity:1" fill="#f48476" d="M 18.5,337.5 C 20.913,338.68 21.913,340.68 21.5,343.5C 19.9925,341.819 18.9925,339.819 18.5,337.5 Z"/></g>
<g><path style="opacity:0.631" fill="#f4938e" d="M 359.5,329.5 C 354.167,336.833 347.833,343.167 340.5,348.5C 346.5,341.833 352.833,335.5 359.5,329.5 Z"/></g>
<g><path style="opacity:0.725" fill="#f4938e" d="M 59.5,337.5 C 61.2624,338.262 62.2624,339.596 62.5,341.5C 60.7376,340.738 59.7376,339.404 59.5,337.5 Z"/></g>
<g><path style="opacity:0.529" fill="#f39c9a" d="M 62.5,341.5 C 63.9063,341.973 64.573,342.973 64.5,344.5C 63.0937,344.027 62.427,343.027 62.5,341.5 Z"/></g>
<g><path style="opacity:0.047" fill="#f8bab8" d="M 393.5,343.5 C 393.573,345.027 392.906,346.027 391.5,346.5C 391.427,344.973 392.094,343.973 393.5,343.5 Z"/></g>
<g><path style="opacity:0.918" fill="#f18681" d="M 64.5,344.5 C 66.2624,345.262 67.2624,346.596 67.5,348.5C 65.7376,347.738 64.7376,346.404 64.5,344.5 Z"/></g>
<g><path style="opacity:1" fill="#7194c3" d="M 199.5,336.5 C 199.263,339.647 198.43,342.647 197,345.5C 196.623,346.942 195.79,347.942 194.5,348.5C 195.655,344.203 197.321,340.203 199.5,336.5 Z"/></g>
<g><path style="opacity:0.965" fill="#f38f89" d="M 67.5,348.5 C 69.914,349.911 71.5806,351.911 72.5,354.5C 70.086,353.089 68.4194,351.089 67.5,348.5 Z"/></g>
<g><path style="opacity:0.769" fill="#f28783" d="M 340.5,348.5 C 339.738,350.262 338.404,351.262 336.5,351.5C 337.262,349.738 338.596,348.738 340.5,348.5 Z"/></g>
<g><path style="opacity:0.059" fill="#f7b9b6" d="M 389.5,348.5 C 389.573,350.027 388.906,351.027 387.5,351.5C 387.427,349.973 388.094,348.973 389.5,348.5 Z"/></g>
<g><path style="opacity:0.667" fill="#95b0d3" d="M 240.5,336.5 C 237.345,345.466 233.679,354.132 229.5,362.5C 232.154,353.216 235.821,344.549 240.5,336.5 Z"/></g>
<g><path style="opacity:1" fill="#7d9bc7" d="M 194.5,348.5 C 194.834,351.491 193.834,353.824 191.5,355.5C 191.935,352.843 192.935,350.509 194.5,348.5 Z"/></g>
<g><path style="opacity:0.714" fill="#f3938e" d="M 336.5,351.5 C 335.738,353.262 334.404,354.262 332.5,354.5C 333.262,352.738 334.596,351.738 336.5,351.5 Z"/></g>
<g><path style="opacity:0.918" fill="#f49892" d="M 28.5,355.5 C 30.4456,356.035 31.4456,357.368 31.5,359.5C 30.0256,358.564 29.0256,357.23 28.5,355.5 Z"/></g>
<g><path style="opacity:0.757" fill="#f38f8c" d="M 332.5,354.5 C 332.027,355.906 331.027,356.573 329.5,356.5C 329.973,355.094 330.973,354.427 332.5,354.5 Z"/></g>
<g><path style="opacity:0.082" fill="#f8bbb9" d="M 383.5,355.5 C 383.573,357.027 382.906,358.027 381.5,358.5C 381.427,356.973 382.094,355.973 383.5,355.5 Z"/></g>
<g><path style="opacity:0.863" fill="#f38a84" d="M 74.5,356.5 C 76.5,357.833 78.1667,359.5 79.5,361.5C 76.8333,360.833 75.1667,359.167 74.5,356.5 Z"/></g>
<g><path style="opacity:0.714" fill="#f49794" d="M 329.5,356.5 C 329.027,357.906 328.027,358.573 326.5,358.5C 326.973,357.094 327.973,356.427 329.5,356.5 Z"/></g>
<g><path style="opacity:0.78" fill="#f39490" d="M 326.5,358.5 C 326.027,359.906 325.027,360.573 323.5,360.5C 323.973,359.094 324.973,358.427 326.5,358.5 Z"/></g>
<g><path style="opacity:0.024" fill="#f8c2c0" d="M 31.5,359.5 C 32.9063,359.973 33.573,360.973 33.5,362.5C 32.0937,362.027 31.427,361.027 31.5,359.5 Z"/></g>
<g><path style="opacity:0.059" fill="#fac0bf" d="M 379.5,360.5 C 378.167,362.5 376.5,364.167 374.5,365.5C 375.167,362.833 376.833,361.167 379.5,360.5 Z"/></g>
<g><path style="opacity:0.667" fill="#f59791" d="M 33.5,362.5 C 35.4456,363.035 36.4456,364.368 36.5,366.5C 35.0256,365.564 34.0256,364.23 33.5,362.5 Z"/></g>
<g><path style="opacity:1" fill="#7e9cc7" d="M 189.5,360.5 C 189.834,363.491 188.834,365.824 186.5,367.5C 186.707,364.759 187.707,362.426 189.5,360.5 Z"/></g>
<g><path style="opacity:0.804" fill="#89a6ce" d="M 229.5,362.5 C 228.012,367.467 226.012,372.134 223.5,376.5C 224.392,372.211 225.725,368.044 227.5,364C 227.836,362.97 228.503,362.47 229.5,362.5 Z"/></g>
<g><path style="opacity:0.035" fill="#f8b7b4" d="M 85.5,367.5 C 87.4044,367.738 88.7377,368.738 89.5,370.5C 87.5956,370.262 86.2623,369.262 85.5,367.5 Z"/></g>
<g><path style="opacity:0.059" fill="#f8bfbd" d="M 373.5,366.5 C 373.027,367.906 372.027,368.573 370.5,368.5C 370.973,367.094 371.973,366.427 373.5,366.5 Z"/></g>
<g><path style="opacity:0.208" fill="#f7bcbc" d="M 306.5,369.5 C 305.22,370.931 303.553,371.598 301.5,371.5C 302.78,370.069 304.447,369.402 306.5,369.5 Z"/></g>
<g><path style="opacity:1" fill="#f17264" d="M 369.5,369.5 C 368.5,371.167 367.167,372.5 365.5,373.5C 365.5,372.167 365.5,370.833 365.5,369.5C 366.833,369.5 368.167,369.5 369.5,369.5 Z"/></g>
<g><path style="opacity:0.024" fill="#f9bab8" d="M 91.5,372.5 C 93.0269,372.427 94.0269,373.094 94.5,374.5C 92.9731,374.573 91.9731,373.906 91.5,372.5 Z"/></g>
<g><path style="opacity:0.886" fill="#f3928f" d="M 301.5,371.5 C 298.374,373.99 294.708,375.323 290.5,375.5C 293.939,373.796 297.605,372.462 301.5,371.5 Z"/></g>
<g><path style="opacity:0.584" fill="#f7b2af" d="M 41.5,373.5 C 43.5,373.5 44.5,374.5 44.5,376.5C 43.1667,375.833 42.1667,374.833 41.5,373.5 Z"/></g>
<g><path style="opacity:1" fill="#6b8fc1" d="M 186.5,367.5 C 186.514,371.475 185.181,374.808 182.5,377.5C 183.321,373.873 184.654,370.54 186.5,367.5 Z"/></g>
<g><path style="opacity:1" fill="#f17161" d="M 363.5,374.5 C 362.415,376.587 360.749,377.92 358.5,378.5C 359.598,377.603 359.598,376.77 358.5,376C 359.5,375.667 360.5,375.333 361.5,375C 361.167,374.667 360.833,374.333 360.5,374C 361.577,373.53 362.577,373.697 363.5,374.5 Z"/></g>
<g><path style="opacity:0.898" fill="#f18783" d="M 290.5,375.5 C 286.325,378.221 281.659,379.554 276.5,379.5C 281.009,378.002 285.676,376.668 290.5,375.5 Z"/></g>
<g><path style="opacity:0.749" fill="#7b9dc9" d="M 223.5,376.5 C 222.833,378.5 222.167,380.5 221.5,382.5C 221.167,382.5 220.833,382.5 220.5,382.5C 220.461,379.911 221.461,377.911 223.5,376.5 Z"/></g>
<g><path style="opacity:1" fill="#f37c6d" d="M 354.5,381.5 C 353.738,383.262 352.404,384.262 350.5,384.5C 350.83,381.538 352.164,380.538 354.5,381.5 Z"/></g>
<g><path style="opacity:0.506" fill="#f39a98" d="M 94.5,378.5 C 94.5979,380.553 93.9313,382.22 92.5,383.5C 92.4021,381.447 93.0687,379.78 94.5,378.5 Z"/></g>
<g><path style="opacity:0.262" fill="#f5b7b5" d="M 275.5,379.5 C 270.116,381.349 264.449,382.516 258.5,383C 245.838,383.5 233.171,383.667 220.5,383.5C 220.5,383.167 220.5,382.833 220.5,382.5C 220.833,382.5 221.167,382.5 221.5,382.5C 239.604,383.073 257.604,382.073 275.5,379.5 Z"/></g>
<g><path style="opacity:0.518" fill="#f7b4b3" d="M 51.5,384.5 C 53.0269,384.427 54.0269,385.094 54.5,386.5C 52.9731,386.573 51.9731,385.906 51.5,384.5 Z"/></g>
<g><path style="opacity:1" fill="#6a8fc2" d="M 180.5,382.5 C 180.834,385.491 179.834,387.824 177.5,389.5C 177.935,386.843 178.935,384.509 180.5,382.5 Z"/></g>
<g><path style="opacity:0.012" fill="#f9cbc9" d="M 350.5,384.5 C 350.027,385.906 349.027,386.573 347.5,386.5C 347.973,385.094 348.973,384.427 350.5,384.5 Z"/></g>
<g><path style="opacity:1" fill="#f28882" d="M 54.5,386.5 C 58.1002,388.43 61.1002,391.097 63.5,394.5C 59.8998,392.57 56.8998,389.903 54.5,386.5 Z"/></g>
<g><path style="opacity:1" fill="#f37d71" d="M 342.5,389.5 C 339.992,391.924 336.992,393.59 333.5,394.5C 333.5,393.5 333.5,392.5 333.5,391.5C 336.692,391.595 339.692,390.929 342.5,389.5 Z"/></g>
<g><path style="opacity:0.471" fill="#f5a29f" d="M 90.5,388.5 C 89.3454,392.797 87.6787,396.797 85.5,400.5C 86.1145,395.952 87.7812,391.952 90.5,388.5 Z"/></g>
<g><path style="opacity:1" fill="#7897c5" d="M 177.5,389.5 C 177.834,392.491 176.834,394.824 174.5,396.5C 174.707,393.759 175.707,391.426 177.5,389.5 Z"/></g>
<g><path style="opacity:0.208" fill="#f6bebc" d="M 333.5,394.5 C 332.713,396.104 331.38,396.771 329.5,396.5C 330.514,395.326 331.847,394.66 333.5,394.5 Z"/></g>
<g><path style="opacity:0.804" fill="#f39793" d="M 65.5,396.5 C 67.4044,396.738 68.7377,397.738 69.5,399.5C 67.5956,399.262 66.2623,398.262 65.5,396.5 Z"/></g>
<g><path style="opacity:0.196" fill="#f5a29e" d="M 327.5,397.5 C 326.486,398.674 325.153,399.34 323.5,399.5C 324.287,397.896 325.62,397.229 327.5,397.5 Z"/></g>
<g><path style="opacity:0.435" fill="#f49e99" d="M 69.5,399.5 C 71.7488,400.08 73.4154,401.413 74.5,403.5C 72.2512,402.92 70.5846,401.587 69.5,399.5 Z"/></g>
<g><path style="opacity:0.392" fill="#f5acab" d="M 321.5,400.5 C 319.208,402.267 316.542,403.267 313.5,403.5C 315.792,401.733 318.458,400.733 321.5,400.5 Z"/></g>
<g><path style="opacity:1" fill="#ef6e61" d="M 74.5,403.5 C 77.6289,404.544 80.6289,404.878 83.5,404.5C 83.853,406.635 83.0197,407.968 81,408.5C 78.6589,406.984 76.4923,405.317 74.5,403.5 Z"/></g>
<g><path style="opacity:1" fill="#f38378" d="M 307.5,405.5 C 305.208,407.267 302.542,408.267 299.5,408.5C 301.557,406.144 304.224,405.144 307.5,405.5 Z"/></g>
<g><path style="opacity:1" fill="#7391c2" d="M 172.5,401.5 C 172.23,405.358 170.897,408.691 168.5,411.5C 168.872,407.703 170.206,404.37 172.5,401.5 Z"/></g>
<g><path style="opacity:0.263" fill="#f5a6a3" d="M 299.5,408.5 C 296.781,409.913 293.781,410.58 290.5,410.5C 293.171,408.882 296.171,408.215 299.5,408.5 Z"/></g>
<g><path style="opacity:0.196" fill="#f7aaa6" d="M 290.5,410.5 C 280.895,413.759 270.895,415.426 260.5,415.5C 260.5,415.167 260.5,414.833 260.5,414.5C 270.682,413.8 280.682,412.467 290.5,410.5 Z"/></g>
<g><path style="opacity:1" fill="#668bbf" d="M 168.5,411.5 C 168.834,414.491 167.834,416.824 165.5,418.5C 165.935,415.843 166.935,413.509 168.5,411.5 Z"/></g>
<g><path style="opacity:1" fill="#f39692" d="M 207.5,413.5 C 224.992,414.497 242.659,414.83 260.5,414.5C 260.5,414.833 260.5,415.167 260.5,415.5C 242.52,416.416 224.52,416.75 206.5,416.5C 206.263,415.209 206.596,414.209 207.5,413.5 Z"/></g>
<g><path style="opacity:0.369" fill="#9fb9d8" d="M 206.5,416.5 C 205.065,421.49 203.065,426.156 200.5,430.5C 201.551,425.323 203.551,420.657 206.5,416.5 Z"/></g>
<g><path style="opacity:0.757" fill="#6f91c2" d="M 165.5,418.5 C 164.619,422.774 163.286,426.941 161.5,431C 161.164,432.03 160.497,432.53 159.5,432.5C 160.935,427.51 162.935,422.844 165.5,418.5 Z"/></g>
<g><path style="opacity:1" fill="#86a3cc" d="M 159.5,432.5 C 159.834,435.491 158.834,437.824 156.5,439.5C 156.935,436.843 157.935,434.509 159.5,432.5 Z"/></g>
<g><path style="opacity:0.392" fill="#96b0d3" d="M 199.5,432.5 C 198.597,436.889 196.931,440.889 194.5,444.5C 195.411,440.076 197.078,436.076 199.5,432.5 Z"/></g>
<g><path style="opacity:1" fill="#698bbf" d="M 156.5,440.5 C 156.498,444.165 155.165,447.165 152.5,449.5C 153.042,446.088 154.375,443.088 156.5,440.5 Z"/></g>
<g><path style="opacity:1" fill="#7e9dca" d="M 152.5,449.5 C 152.834,452.491 151.834,454.824 149.5,456.5C 149.935,453.843 150.935,451.509 152.5,449.5 Z"/></g>
<g><path style="opacity:0.392" fill="#9bb5d6" d="M 194.5,445.5 C 193.398,449.492 191.732,453.159 189.5,456.5C 190.338,453.314 191.338,450.147 192.5,447C 192.836,445.97 193.503,445.47 194.5,445.5 Z"/></g>
<g><path style="opacity:0.596" fill="#92afd2" d="M 188.5,458.5 C 187.737,462.137 186.403,465.47 184.5,468.5C 184.872,464.703 186.206,461.37 188.5,458.5 Z"/></g>
<g><path style="opacity:1" fill="#7d9dc9" d="M 147.5,461.5 C 146.979,466.087 145.312,470.087 142.5,473.5C 143.655,469.203 145.321,465.203 147.5,461.5 Z"/></g>
<g><path style="opacity:0.702" fill="#8ba8cf" d="M 182.5,473.5 C 181.397,477.497 179.731,481.164 177.5,484.5C 178.338,481.314 179.338,478.147 180.5,475C 180.836,473.97 181.503,473.47 182.5,473.5 Z"/></g>
<g><path style="opacity:1" fill="#3c70af" d="M 140.5,478.5 C 140.643,480.262 140.309,481.929 139.5,483.5C 152.149,484.499 164.816,484.832 177.5,484.5C 177.5,484.833 177.5,485.167 177.5,485.5C 164.124,486.148 151.124,485.481 138.5,483.5C 138.402,481.447 139.069,479.78 140.5,478.5 Z"/></g>
<g><path style="opacity:0.369" fill="#adc4dd" d="M 138.5,483.5 C 151.124,485.481 164.124,486.148 177.5,485.5C 177.5,485.833 177.5,486.167 177.5,486.5C 164.167,486.5 150.833,486.5 137.5,486.5C 137.263,485.209 137.596,484.209 138.5,483.5 Z"/></g>
</svg>
