<?xml version="1.0" ?><!-- Uploaded to: SVG Repo, www.svgrepo.com, Generator: SVG Repo Mixer Tools -->
<svg width="800px" height="800px" viewBox="0 0 64 64" data-name="Layer 1" id="Layer_1" xmlns="http://www.w3.org/2000/svg"><defs><style>.cls-1{fill:#65c8d0;}.cls-2{fill:#fcdd7c;}.cls-3{fill:#ba9bc9;}.cls-4{fill:#838bc5;}.cls-5{fill:#e7685d;}.cls-6{fill:#f4ecce;}</style></defs><path class="cls-1" d="M47,13.65a6,6,0,1,0-4,0"/><path class="cls-2" d="M43,22V10a2,2,0,0,1,2-2h0a2,2,0,0,1,2,2V22"/><polyline class="cls-1" points="11 22 11 14 15 14 15 22"/><polyline class="cls-1" points="19 22 19 14 23 14 23 22"/><polyline class="cls-3" points="49 28 55 28 55 34 49 34"/><polyline class="cls-3" points="49 50 55 50 55 56 49 56"/><rect class="cls-4" height="40" width="40" x="9" y="22"/><polyline class="cls-5" points="40 51 44 51 44 55 40 55"/><polyline class="cls-3" points="18 62 18 43 40 43 40 62"/><polygon class="cls-2" points="36 58 22 58 29 47 36 58"/><rect class="cls-5" height="4" width="2" x="28" y="52"/><rect class="cls-5" height="2" width="4" x="14" y="46"/><rect class="cls-5" height="2" width="4" x="14" y="56"/><rect class="cls-2" height="4" width="6" x="13" y="26"/><rect class="cls-2" height="4" width="6" x="13" y="34"/><rect class="cls-6" height="2" width="8" x="22" y="27"/><rect class="cls-1" height="2" width="8" x="22" y="35"/><circle class="cls-1" cx="35" cy="28" r="2"/><circle class="cls-1" cx="43" cy="28" r="2"/><rect class="cls-1" height="2" width="2" x="32" y="35"/><rect class="cls-1" height="2" width="2" x="36" y="35"/><rect class="cls-1" height="2" width="2" x="40" y="35"/><rect class="cls-1" height="2" width="2" x="44" y="35"/><rect class="cls-2" height="4" width="2" x="20" y="10"/><rect class="cls-2" height="4" width="2" x="12" y="10"/></svg>