<?xml version="1.0" standalone="no"?>
<!DOCTYPE svg PUBLIC "-//W3C//DTD SVG 20010904//EN"
 "http://www.w3.org/TR/2001/REC-SVG-20010904/DTD/svg10.dtd">
<svg version="1.0" xmlns="http://www.w3.org/2000/svg"
 width="600.000000pt" height="600.000000pt" viewBox="0 0 600.000000 600.000000"
 preserveAspectRatio="xMidYMid meet">

<g transform="translate(0.000000,600.000000) scale(0.100000,-0.100000)"
fill="#000000" stroke="none">
<path d="M2772 4790 c-38 -16 -52 -67 -52 -190 l0 -110 -25 0 c-14 0 -37 -11
-51 -25 -25 -25 -25 -25 -220 -25 -164 0 -200 -3 -222 -16 -22 -14 -167 -178
-316 -359 -38 -47 -39 -100 -1 -132 21 -19 38 -23 91 -23 l64 0 0 -37 c0 -120
14 -330 22 -340 20 -25 -88 -179 -196 -280 -116 -109 -241 -163 -377 -163 -90
0 -125 -33 -82 -76 15 -14 30 -16 108 -11 127 9 214 38 319 110 145 98 267
251 338 422 4 11 9 99 11 195 l2 175 90 0 90 0 2 -175 c2 -107 7 -184 14 -197
10 -18 7 -36 -15 -100 -82 -233 -247 -469 -416 -596 -120 -91 -315 -173 -455
-192 -72 -10 -84 -14 -95 -36 -8 -13 -7 -25 0 -39 14 -26 57 -26 170 -1 354
79 633 310 810 672 27 56 61 140 76 188 15 47 31 95 35 106 5 11 10 99 12 195
l2 175 94 3 94 3 -7 -228 c-4 -125 -11 -320 -16 -433 -5 -113 -10 -229 -10
-257 0 -50 -1 -53 -25 -53 -46 0 -83 -27 -94 -68 -6 -20 -38 -316 -71 -657
-34 -341 -63 -641 -67 -668 l-6 -47 -133 0 c-134 0 -134 0 -166 -29 -33 -29
-33 -30 -33 -120 0 -86 2 -92 28 -118 l27 -28 346 0 346 0 29 33 c27 30 29 38
29 113 0 79 -1 82 -34 115 l-34 34 -111 0 c-109 0 -111 0 -111 23 1 40 57 577
61 581 2 1 176 -111 387 -250 380 -252 382 -254 382 -288 0 -19 3 -41 6 -50 5
-14 -8 -16 -103 -16 -122 0 -145 -9 -169 -66 -18 -43 -18 -125 0 -169 27 -63
38 -65 396 -65 417 0 404 -5 401 177 -1 50 -6 67 -25 90 -24 28 -25 28 -173
33 l-148 5 -41 415 c-97 974 -94 954 -113 980 -11 15 -34 29 -59 34 -36 9 -42
14 -46 40 -3 17 -10 184 -16 371 -6 187 -13 391 -17 453 l-6 112 102 0 101 0
0 -166 c0 -156 2 -174 30 -273 39 -135 129 -320 211 -436 189 -264 457 -434
753 -477 83 -12 89 -11 102 7 18 25 18 31 -5 54 -11 11 -41 21 -81 25 -137 16
-325 93 -450 186 -179 133 -339 359 -425 602 -25 72 -26 78 -11 100 13 18 16
53 16 200 l0 178 90 0 90 0 0 -167 c0 -92 5 -182 11 -202 57 -185 235 -385
429 -482 147 -73 350 -81 350 -14 0 31 -31 45 -99 45 -139 0 -258 51 -378 164
-77 72 -129 136 -176 216 -23 40 -24 47 -11 64 11 16 14 59 14 198 l0 178 65
0 c58 0 69 3 90 26 49 53 40 72 -126 270 -82 98 -163 191 -180 207 l-29 27
-203 0 -202 0 -24 25 c-13 14 -33 25 -46 25 -20 0 -23 6 -29 61 -3 34 -6 91
-6 126 0 58 -3 68 -29 94 l-29 29 -209 -1 c-114 0 -218 -4 -231 -9z m328 -235
l0 -65 -106 0 c-93 0 -105 2 -100 16 3 9 6 38 6 65 l0 49 100 0 100 0 0 -65z
m-463 -314 c7 -11 25 -22 40 -25 28 -6 28 -7 25 -71 l-4 -65 -279 0 c-221 0
-279 3 -273 13 4 6 37 47 73 89 l66 77 170 1 c157 0 171 -1 182 -19z m1142
-65 c39 -46 71 -86 71 -90 0 -3 -125 -5 -277 -4 l-278 3 -3 63 c-2 50 0 62 12
62 8 0 28 11 43 25 27 24 32 24 194 25 l167 0 71 -84z m-664 -58 c4 -51 5
-118 3 -149 l-3 -56 -117 76 -118 76 0 73 0 72 114 0 114 0 7 -92z m-74 -371
l87 -57 7 -126 c4 -69 5 -128 2 -130 -4 -4 -252 151 -275 171 -2 2 0 59 4 128
l7 126 41 -28 c23 -15 80 -53 127 -84z m-35 -449 l143 -93 1 -71 c0 -39 3 -99
6 -133 l7 -61 -162 0 -161 0 0 58 c0 109 13 392 18 392 3 0 69 -42 148 -92z
m285 -545 c0 -5 8 -81 17 -170 10 -90 14 -163 10 -163 -9 0 -508 328 -508 335
0 8 480 6 481 -2z m-265 -357 c175 -116 320 -210 321 -210 5 -2 35 -337 31
-342 -10 -9 -718 464 -718 480 0 22 20 215 26 254 3 18 9 32 13 30 4 -2 152
-97 327 -212z"/>
</g>
</svg>
