<?xml version="1.0" ?><!-- Uploaded to: SVG Repo, www.svgrepo.com, Generator: SVG Repo Mixer Tools -->
<svg width="800px" height="800px" viewBox="0 0 64 64" data-name="Layer 1" id="Layer_1" xmlns="http://www.w3.org/2000/svg"><defs><style>.cls-1{fill:#8f6c56;}.cls-2{fill:#f4ecce;}.cls-3{fill:#fcdd7c;}.cls-4{fill:#65c8d0;}.cls-5{fill:#838bc5;}.cls-6{fill:#ba9bc9;}</style></defs><polyline class="cls-1" points="34 15 36 19 28 19 30 15"/><polyline class="cls-1" points="22 15 24 19 16 19 18 15"/><polyline class="cls-1" points="46 15 48 19 40 19 42 15"/><polyline class="cls-2" points="34 11 36 15 28 15 30 11"/><polyline class="cls-2" points="22 11 24 15 16 15 18 11"/><polyline class="cls-2" points="46 11 48 15 40 15 42 11"/><rect class="cls-1" height="28" width="44" x="10" y="27"/><polygon class="cls-3" points="42 51 22 51 32 31 42 51"/><path class="cls-4" d="M32.89,48.45l-1.78-.9L32.38,45H30a1,1,0,0,1-.89-1.45l2-4,1.78.9L31.62,43H34a1,1,0,0,1,.89,1.45Z"/><rect class="cls-5" height="6" width="50" x="7" y="55"/><polygon class="cls-1" points="36 11 28 11 30 7 34 7 36 11"/><rect class="cls-6" height="4" width="2" x="31" y="3"/><rect class="cls-6" height="4" width="2" x="29" y="19"/><rect class="cls-6" height="4" width="2" x="33" y="19"/><polygon class="cls-1" points="24 11 16 11 18 7 22 7 24 11"/><rect class="cls-6" height="4" width="2" x="19" y="3"/><rect class="cls-6" height="4" width="2" x="17" y="19"/><rect class="cls-6" height="4" width="2" x="21" y="19"/><polygon class="cls-1" points="48 11 40 11 42 7 46 7 48 11"/><rect class="cls-6" height="4" width="2" x="43" y="3"/><rect class="cls-6" height="4" width="2" x="41" y="19"/><rect class="cls-6" height="4" width="2" x="45" y="19"/><rect class="cls-5" height="4" rx="2" width="48" x="8" y="23"/></svg>